<svg fill="none" xmlns="http://www.w3.org/2000/svg" viewBox="0 0 164 48"><g clip-path="url(#a)"><path d="M151.695 26.042c.06.06.105.132.132.212a.63.63 0 0 1 .052.25v.635c0 .172-.061.34-.174.47a.586.586 0 0 1-.415.189h-.372a.54.54 0 0 1-.415-.189.714.714 0 0 1-.174-.47v-.635a.691.691 0 0 1 .174-.471.584.584 0 0 1 .415-.188h.358a.475.475 0 0 1 .217.047.662.662 0 0 1 .202.15Z" fill="#25303E"/><path d="M64.63 28.88h-3.097a3.453 3.453 0 0 0-2.55 1.078 3.558 3.558 0 0 0-1.083 2.527V40h1.244v-6.922c.01-.786.322-1.538.872-2.1a2.962 2.962 0 0 1 2.064-.86h1.847a2.869 2.869 0 0 1 2.05.86 2.939 2.939 0 0 1 .872 2.1V40h1.3v-7.53a3.404 3.404 0 0 0-1.083-2.526 3.04 3.04 0 0 0-2.437-1.064Z" fill="#25303E"/><path d="M52.357 28.663h-2.44a4.13 4.13 0 0 0-2.772 1.13 4.035 4.035 0 0 0-1.14 2.743v3.765a4.025 4.025 0 0 0 1.121 2.758 3.77 3.77 0 0 0 2.771 1.13h2.441a4.108 4.108 0 0 0 2.8-1.13 3.805 3.805 0 0 0 1.14-2.744v-3.764a4.034 4.034 0 0 0-1.14-2.758 4.13 4.13 0 0 0-2.78-1.13Zm2.554 3.765v4.09a2.586 2.586 0 0 1-.706 1.722 2.504 2.504 0 0 1-1.683.696h-2.714a2.41 2.41 0 0 1-1.687-.696 2.488 2.488 0 0 1-.703-1.722v-4.09c.012-.64.262-1.252.703-1.717a2.5 2.5 0 0 1 1.687-.702h2.714c.629.004 1.23.256 1.673.701.446.464.701 1.076.716 1.718Z" fill="#25303E"/><path d="M41 28.88h-3.087a3.043 3.043 0 0 0-1.357.268 2.9 2.9 0 0 0-1.032.593v-4.899h-1.249V40h1.306v-6.979c.01-.784.32-1.535.867-2.099a2.99 2.99 0 0 1 2.064-.86h1.847a2.897 2.897 0 0 1 2.055.86 2.964 2.964 0 0 1 .867 2.1v6.94h1.306v-7.529a3.388 3.388 0 0 0-1.089-2.527A3.208 3.208 0 0 0 41 28.88Z" fill="#25303E"/><path d="M108.071 28.706h-2.441a4.11 4.11 0 0 0-2.772 1.13 4.025 4.025 0 0 0-1.14 2.743v3.764a4.036 4.036 0 0 0 1.14 2.744 3.777 3.777 0 0 0 2.772 1.13h2.441a4.143 4.143 0 0 0 2.771-1.13 4.036 4.036 0 0 0 1.14-2.744V32.58a4.025 4.025 0 0 0-1.14-2.744 3.777 3.777 0 0 0-2.771-1.13Zm2.554 3.765v4.089a2.578 2.578 0 0 1-.707 1.718 2.275 2.275 0 0 1-1.682.7h-2.72a2.391 2.391 0 0 1-1.682-.7 2.463 2.463 0 0 1-.702-1.718v-4.09a2.582 2.582 0 0 1 .702-1.722 2.519 2.519 0 0 1 1.682-.7h2.72a2.4 2.4 0 0 1 1.682.7 2.59 2.59 0 0 1 .707 1.723Z" fill="#25303E"/><path d="M128.433 28.932h-3.039a3.551 3.551 0 0 0-1.683.433c-.463.251-.867.6-1.183 1.021a3.084 3.084 0 0 0-1.197-1.021 3.492 3.492 0 0 0-1.626-.433h-2.931c-.94.024-1.835.41-2.497 1.078a3.39 3.39 0 0 0-.981 2.527v7.529h1.221v-6.885a2.823 2.823 0 0 1 .217-1.13 2.9 2.9 0 0 1 .598-.94c.278-.265.596-.485.943-.65.34-.151.711-.224 1.084-.211h1.739a2.8 2.8 0 0 1 1.79.644c.492.396.837.944.981 1.558v7.67h1.357V32.32a2.892 2.892 0 0 1 2.766-2.094h1.796a2.957 2.957 0 0 1 2.059.861c.55.539.863 1.273.872 2.043v6.94h1.357v-7.529a3.555 3.555 0 0 0-1.032-2.527 4.093 4.093 0 0 0-2.611-1.082Z" fill="#25303E"/><path d="M142.444 29.741a3.802 3.802 0 0 0-2.719-1.077h-2.441a3.772 3.772 0 0 0-2.554.983v-4.856h-1.362v11.444a4.057 4.057 0 0 0 1.14 2.744 3.792 3.792 0 0 0 2.771 1.13h2.441a3.874 3.874 0 0 0 2.771-1.13 3.805 3.805 0 0 0 1.146-2.744v-3.764a4.278 4.278 0 0 0-.274-1.454 5.527 5.527 0 0 0-.919-1.276Zm-7.766 2.636a2.58 2.58 0 0 1 .707-1.723 2.498 2.498 0 0 1 1.682-.701h2.715a2.401 2.401 0 0 1 1.682.701c.45.461.703 1.079.707 1.723v4.089a2.567 2.567 0 0 1-.707 1.718 2.477 2.477 0 0 1-1.682.7h-2.715a2.385 2.385 0 0 1-1.682-.7 2.466 2.466 0 0 1-.707-1.718v-4.09Z" fill="#25303E"/><path d="M99.437 38.08a2.269 2.269 0 0 1-.707.537 1.797 1.797 0 0 1-.943.216h-2.55a2.457 2.457 0 0 1-1.63-.753 2.32 2.32 0 0 1-.65-1.67v-4.09a2.393 2.393 0 0 1 .65-1.666 2.59 2.59 0 0 1 1.63-.753h2.55c.548 0 1.074.212 1.466.593l.056.052h1.542l-.057-.16a3.905 3.905 0 0 0-1.3-1.346 3.636 3.636 0 0 0-1.796-.47h-2.281a3.932 3.932 0 0 0-2.606 1.185 3.814 3.814 0 0 0-1.032 2.687v3.765a3.6 3.6 0 0 0 1.032 2.687 3.805 3.805 0 0 0 2.606 1.186h2.28a3.66 3.66 0 0 0 1.848-.55 3.257 3.257 0 0 0 1.306-1.412l.051-.16h-1.465v.122Z" fill="#25303E"/><path d="m85.807 37.647-.108-.052c-.34-.1-.658-.26-.943-.47a5.754 5.754 0 0 1-1.413-2.424l-1.683-5.59c0-.057-.052-.109-.052-.165 0-.057-.056-.108-.056-.16v-.08h-1.249v.103c.053.292.126.58.217.861l1.522 5.177c.542 1.882 1.739 3.388 3.148 3.925l-2.53 4.993h1.3l7.766-15.06H90.37l-4.562 8.942Z" fill="#25303E"/><path d="M151.747 29.308h-1.248v10.824h1.248V29.308Z" fill="#25303E"/><path d="M163.675 30.979a3.369 3.369 0 0 0-.872-1.238 4.693 4.693 0 0 0-1.244-.86 3.53 3.53 0 0 0-1.47-.27h-2.441a4.117 4.117 0 0 0-2.771 1.13 3.81 3.81 0 0 0-1.141 2.73v3.764a4.036 4.036 0 0 0 1.141 2.744 3.773 3.773 0 0 0 2.771 1.13h2.441a4.107 4.107 0 0 0 2.771-1.13 4.036 4.036 0 0 0 1.141-2.744v-3.764c0-.515-.111-1.024-.326-1.492Zm-1.032 1.412v4.09a2.567 2.567 0 0 1-.707 1.717c-.451.439-1.052.69-1.682.7h-2.715a2.386 2.386 0 0 1-1.682-.7 2.47 2.47 0 0 1-.707-1.718v-4.103a2.59 2.59 0 0 1 .707-1.723 2.496 2.496 0 0 1 1.682-.696h2.715a2.399 2.399 0 0 1 1.682.696 2.58 2.58 0 0 1 .707 1.723v.014Z" fill="#25303E"/><path d="M76.415 28.706h-3.37a2.962 2.962 0 0 0-2.063.753 2.991 2.991 0 0 0-1.032 1.934v4.842c-.003.555.11 1.105.33 1.614.207.487.506.93.88 1.304.367.367.814.644 1.306.81a6.13 6.13 0 0 0 1.084.211h2.224a3.424 3.424 0 0 0 1.984-.645c.193-.142.374-.3.542-.47a3.428 3.428 0 0 0 .65-1.13l.057-.108-1.183-.174-.052.056a2.39 2.39 0 0 1-.546.753c-.375.33-.853.52-1.353.537h-2.497a1.853 1.853 0 0 1-.594-.108 2.186 2.186 0 0 1-1.15-.861 1.61 1.61 0 0 1-.325-.697c-.057-.108-.057-.273-.109-.377v-1.99h5.213a2.976 2.976 0 0 0 2.115-.81c.59-.543.94-1.298.976-2.098v-.377a3.02 3.02 0 0 0-.942-2.099 2.923 2.923 0 0 0-2.145-.87Zm1.192 4.734c-.284.199-.629.293-.975.268h-5.429v-2.301a1.744 1.744 0 0 1 .976-1.332c.238-.107.497-.162.758-.16h3.695c.243-.002.484.053.702.16.221.112.423.258.599.433a2.406 2.406 0 0 1 .273 2.099 1.657 1.657 0 0 1-.598.847v-.014Z" fill="#25303E"/><path d="M148.298 38.612a1.527 1.527 0 1 1-2.937-.59 1.52 1.52 0 0 1 1.41-.94 1.525 1.525 0 0 1 1.527 1.53Z" fill="#25303E"/><path d="m26.065 32.701 4.374 7.647L26.065 48h-8.694l-4.369-7.652 4.369-7.647h8.694Z" fill="#FFB000"/><path d="m26.065 14.24 4.374 7.647-4.374 7.652h-8.694l-4.369-7.652 4.369-7.647h8.694Z" fill="#64BA00"/><path d="m10.674 24.79 3.563 6.325-3.563 6.335H3.563L0 31.114l3.563-6.324h7.111Z" fill="#F96E10"/><path d="m44.992 0 5.655 10.014-5.655 10.028H33.625L27.97 10.014 33.625 0h11.367Z" fill="#0298EC"/></g><defs><clipPath id="a"><path fill="#fff" d="M0 0h164v48H0z"/></clipPath></defs></svg>