<svg xmlns="http://www.w3.org/2000/svg" viewBox="0 0 177 170" xml:space="preserve"><path fill="currentColor" d="m70.7 100-20 3.4c2.8 8.1 8.5 15.2 15.6 19.8l7.7-18.6c.4-.6.4-1.4.2-2-.3-1.5-1.9-2.6-3.5-2.6z"/><path fill="currentColor" d="M69.5 87.3c1.2-1.4 1-3.4-.4-4.6l-15-13.4c-4.4 7.5-6.5 16.2-5.9 24.6l19.6-5.7c.9-.1 1.3-.3 1.7-.9z"/><path fill="currentColor" d="M78.4 74.2c1.8 0 3.4-1.4 3.4-3.2l1-20.2-4 .8c-7.1 1.6-13.5 5.3-18.8 10.3l16.8 11.9c.6.2 1 .4 1.6.4z"/><path fill="currentColor" d="m82.4 94.4 5.5 2.6 5.4-2.6 1.4-5.9-3.8-4.8h-6.1L81 88.5z"/><path fill="currentColor" d="M94.3 72.8c1 1.4 3 1.6 4.4.8l16.6-11.7c-6.1-6.1-13.9-9.9-22.8-10.9l1.2 20.4c0 .6.2 1 .6 1.4z"/><path fill="currentColor" d="M103 100.2c-1.4.6-2.2 2.2-1.8 3.8l7.9 19c4.8-3 9.1-7.3 12.1-12.1 1.6-2.2 2.8-4.8 3.8-7.7l-20.2-3.4c-.6 0-1.2.2-1.8.4z"/><path fill="currentColor" d="m176.5 103.3-15.4-66.1c-1-3.2-3.4-5.9-6.5-7.5L93.1.3c-1.6-.8-3.4-1-5.1-1s-3.4 0-5.1.4L21.4 29.3c-3 1.4-5.3 4-6.1 7.5L.2 103.3c-.6 3.4.2 6.9 2.2 9.7L45 165.7c2.4 2.4 5.9 4 9.3 4.2h67.9c3.6.4 7.1-1.2 9.3-4.2l42.6-52.7c2-2.9 2.9-6.3 2.4-9.7zm-25.2 4.4c-.4 0-.6 0-1-.2-.2-.2-.2-.2-.4-.2-.4 0-.6-.2-.8-.2-.8-.2-1.4-.6-2.2-1-.4 0-.8-.2-1.2-.4h-.2c-2-.8-4.2-1.4-6.5-1.8h-.2c-.6 0-1.2.2-1.6.6 0 0 0 .2-.2.2l-1.6-.2c-3.6 11.5-11.5 21.2-21.8 27.5l.6 1.6s-.2 0-.2.2c-.4.6-.4 1.4-.2 2 .8 2 1.8 4 3.2 5.9v.4c.4.4.6.6.8 1 .6.6 1 1.2 1.4 2 .2.2.4.4.4.6 0 0 .2 0 .2.2.4 1 .4 2 .2 3s-1 1.8-1.8 2.2c-.6.2-1 .4-1.6.4-1.6 0-3-1-3.8-2.4-.2 0-.2-.2-.2-.2-.2-.2-.2-.4-.4-.6-.4-.6-.6-1.4-.8-2.2l-.4-1.2v-.2c-.6-2.2-1.6-4.2-2.6-6.3-.4-.6-1-1-1.6-1.2 0-.2 0-.2-.2-.2l-.8-1.4c-2 .6-4.2 1.4-6.5 1.8-3.6 1-7.3 1.4-10.9 1.4-6.1 0-11.9-1-17.6-3.2l-.8 1.6c0 .2 0 .2-.2.2-.6.2-1.2.6-1.6 1.2-1 2-2 4-2.6 6.3l-.4 1.2c-.2.8-.6 1.4-.8 2.2-.2.2-.4.4-.4.6-.2 0-.2.2-.2.2-.8 1.4-2.2 2.4-3.8 2.4-.4 0-1-.2-1.4-.4-1.8-1-2.6-3.4-1.6-5.5.2 0 .2-.2.2-.2.2-.2.2-.4.4-.6.6-.8 1-1.6 1.4-2 .4-.4.6-.6.8-1v-.2c1.2-1.8 2.4-3.8 3.2-5.9.2-.6.2-1.4-.2-2 0 0-.2 0-.2-.2l1-1.4c-2-1-3.6-2.2-5.5-3.6-7.9-6.1-13.5-14.3-16.6-23.6l-1.8.2s0-.2-.2-.2c-.4-.4-1-.6-1.6-.6h-.2c-2.4.4-4.4 1-6.7 1.8h-.2c-.4 0-.8.2-1.2.4-.6.2-1.4.6-2.2.8-.2 0-.8-.2-.8 0s0 .2-.2.2c-.4.2-.6.2-1 .2-1.8.2-3.6-1-4-2.8-.4-2.2 1-4.2 3.2-4.6.2-.2.2-.2.4-.2.4 0 .6-.2.8-.2.8 0 1.6-.2 2.4-.2.4-.2.8-.2 1.2-.2 2.4-.2 4.6-.6 6.9-1.2.6-.4 1.2-.8 1.4-1.4 0 0 .2 0 .2-.2l1.6-.4c-1.8-11.5.8-23.2 7.1-33.1.2-.4.4-.6.6-1L46 61v.2-.2c.1-.6-.3-1.3-.6-1.7-1.6-1.6-3.6-2.8-5.7-4l-1.2-.6c-.8-.4-1.6-.8-2.2-1.2-.2 0-.6-.4-.6-.4s0-.2-.2-.2c-1.6-1.4-2-3.8-.8-5.7.6-1 1.6-1.4 2.8-1.4 1 0 2 .4 2.8 1l.2.2c.2.2.4.2.6.4.6.6 1 1.2 1.6 1.8.2.2.6.4.8.8 1.4 1.6 3.2 3.2 5.1 4.6.4.2.8.4 1.2.4s.6-.2.8-.2h.2l1.2.8c6.7-7.1 15.4-12.1 24.8-14.1 2.4-.4 4.6-.8 6.9-1l.2-1.6v-.4c.6-.4.8-1 1-1.6 0-2.4 0-4.6-.4-6.9v-.2c0-.4 0-.8-.2-1.2-.2-.8-.4-1.6-.4-2.4v-1c0-1 .4-2 1.2-2.8 1-1 2.2-1.6 3.4-1.4 2 .2 3.6 2.2 3.4 4.2v1.2c-.2.8-.2 1.6-.4 2.4 0 .4-.2.8-.2 1.2v.2c-.4 2.4-.4 4.6-.4 6.9.2.6.4 1.2 1 1.6v-.2l.2 1.6c9.5 1 18.8 4.6 26.3 10.5 1.6 1.6 3.4 3.2 5.1 4.8l1.6-1h.2c.2.2.6.2.8.2.4 0 .8-.2 1.2-.4 1.8-1.2 3.6-2.8 5.1-4.4.2-.2.6-.4.8-.8.4-.6 1-1.2 1.6-1.8.2 0 .4-.2.6-.4l.2-.2c.8-.6 1.8-1 2.8-1 1 0 2.2.6 2.8 1.4 1.4 1.8 1 4.2-.8 5.7 0 .2.2.2 0 .4s-.4.2-.6.4c-.8.4-1.4.8-2.2 1.2l-1.2.6c-2 1.2-3.8 2.4-5.7 4-.4.4-.6 1.2-.6 1.8v.2l-1.2 1.2c3.2 5.1 5.7 10.7 7.1 16.6 1.2 5.9 1.6 11.9.8 17.8l1.6.4c.2.6.8 1.2 1.4 1.4 2.2.6 4.6 1 6.9 1.2h.2c.4.2.8.2 1.2.2.8 0 1.6 0 2.4.2.4 0 .8 0 .8.2s.2.2.4.2c1.8.4 3.4 2 3.6 4.2-.6 1.6-2.2 2.8-4 2.8z"/><path fill="currentColor" d="M89.1 108.7c-1.4-.8-3-.4-4 .8l-9.9 18c4 1.2 8.5 2 12.7 2 3 0 5.9-.4 8.7-1 1.4-.4 2.6-.6 3.8-.8l-9.7-17.6c-.6-.6-1-1-1.6-1.4z"/><path fill="currentColor" d="M121.4 69.3 106.2 83c-.4.4-.6.8-.8 1.4-.4 1.8.6 3.6 2.4 4l19.2 5.5c.4-4.2.2-8.5-.8-12.7-1-4.2-2.6-8.2-4.8-11.9z"/></svg>