<svg version="1.1" id="svg2" xmlns="http://www.w3.org/2000/svg" x="0" y="0" viewBox="0 0 200 200" xml:space="preserve"><path fill="#dd5900" d="m100 37.9 63.1 52.4-21.3 72.1h-85l-20.1-72L100 37.9zm0-22.3L17.2 84.3l26.6 95.3h110.9l28.1-95.3L100 15.6z"/><path fill="#dd5900" d="M100 0c17.3 0 31.2 14 31.2 31.2s-14 31.2-31.2 31.2-31.2-14-31.2-31.2S82.7 0 100 0z"/><path fill="#dd5900" d="M168.8 53.1c17.3 0 31.2 14 31.2 31.2s-14 31.2-31.2 31.2-31.2-14-31.2-31.2 13.9-31.2 31.2-31.2z"/><path fill="#dd5900" d="M145.3 137.5c17.3 0 31.2 14 31.2 31.2s-14 31.2-31.2 31.2-31.2-14-31.2-31.2 14-31.2 31.2-31.2z"/><path fill="#dd5900" d="M54.6 137.5c17.3 0 31.2 14 31.2 31.2S71.9 200 54.6 200s-31.2-14-31.2-31.2 14-31.3 31.2-31.3z"/><path fill="#dd5900" d="M31.3 53.1c17.3 0 31.2 14 31.2 31.2s-14 31.2-31.2 31.2C14 115.6 0 101.6 0 84.4c0-17.3 14-31.3 31.3-31.3-.1 0-.1 0 0 0z"/></svg>