<svg id="visual" viewBox="0 0 960 540" width="960" height="540" xmlns="http://www.w3.org/2000/svg" xmlns:xlink="http://www.w3.org/1999/xlink" version="1.1"><rect x="0" y="0" width="960" height="540" fill="#fff"></rect><path d="M0 386L22.8 389C45.7 392 91.3 398 137 399.7C182.7 401.3 228.3 398.7 274 400.2C319.7 401.7 365.3 407.3 411.2 400.3C457 393.3 503 373.7 548.8 366.8C594.7 360 640.3 366 686 368.2C731.7 370.3 777.3 368.7 823 366.8C868.7 365 914.3 363 937.2 362L960 361L960 541L937.2 541C914.3 541 868.7 541 823 541C777.3 541 731.7 541 686 541C640.3 541 594.7 541 548.8 541C503 541 457 541 411.2 541C365.3 541 319.7 541 274 541C228.3 541 182.7 541 137 541C91.3 541 45.7 541 22.8 541L0 541Z" fill="#0095ff"></path><path d="M0 454L22.8 450.8C45.7 447.7 91.3 441.3 137 432.3C182.7 423.3 228.3 411.7 274 415.5C319.7 419.3 365.3 438.7 411.2 447.5C457 456.3 503 454.7 548.8 447.8C594.7 441 640.3 429 686 426.2C731.7 423.3 777.3 429.7 823 428.5C868.7 427.3 914.3 418.7 937.2 414.3L960 410L960 541L937.2 541C914.3 541 868.7 541 823 541C777.3 541 731.7 541 686 541C640.3 541 594.7 541 548.8 541C503 541 457 541 411.2 541C365.3 541 319.7 541 274 541C228.3 541 182.7 541 137 541C91.3 541 45.7 541 22.8 541L0 541Z" fill="#156bb9"></path><path d="M0 449L22.8 449.7C45.7 450.3 91.3 451.7 137 455.2C182.7 458.7 228.3 464.3 274 462.7C319.7 461 365.3 452 411.2 450.8C457 449.7 503 456.3 548.8 459.7C594.7 463 640.3 463 686 464.3C731.7 465.7 777.3 468.3 823 473.2C868.7 478 914.3 485 937.2 488.5L960 492L960 541L937.2 541C914.3 541 868.7 541 823 541C777.3 541 731.7 541 686 541C640.3 541 594.7 541 548.8 541C503 541 457 541 411.2 541C365.3 541 319.7 541 274 541C228.3 541 182.7 541 137 541C91.3 541 45.7 541 22.8 541L0 541Z" fill="#144477"></path><path d="M0 503L22.8 502.7C45.7 502.3 91.3 501.7 137 501.5C182.7 501.3 228.3 501.7 274 498C319.7 494.3 365.3 486.7 411.2 487C457 487.3 503 495.7 548.8 498C594.7 500.3 640.3 496.7 686 495.7C731.7 494.7 777.3 496.3 823 499C868.7 501.7 914.3 505.3 937.2 507.2L960 509L960 541L937.2 541C914.3 541 868.7 541 823 541C777.3 541 731.7 541 686 541C640.3 541 594.7 541 548.8 541C503 541 457 541 411.2 541C365.3 541 319.7 541 274 541C228.3 541 182.7 541 137 541C91.3 541 45.7 541 22.8 541L0 541Z" fill="#0c213c"></path></svg>