<?xml version="1.0" encoding="UTF-8" standalone="no"?>
<svg
   version="1.1"
   id="Layer_1"
   x="0px"
   y="0px"
   width="100%"
   viewBox="0 0 1024 1024"
   enable-background="new 0 0 1024 1024"
   xml:space="preserve"
   sodipodi:docname="logo-fault.svg"
   inkscape:version="1.2.2 (b0a8486541, 2022-12-01)"
   xmlns:inkscape="http://www.inkscape.org/namespaces/inkscape"
   xmlns:sodipodi="http://sodipodi.sourceforge.net/DTD/sodipodi-0.dtd"
   xmlns:xlink="http://www.w3.org/1999/xlink"
   xmlns="http://www.w3.org/2000/svg"
   xmlns:svg="http://www.w3.org/2000/svg"><defs
   id="defs43"><linearGradient
     id="linearGradient656"><stop
       style="stop-color:#00a7d6;stop-opacity:1;"
       offset="0"
       id="stop5706" /><stop
       style="stop-color:#d35197;stop-opacity:1"
       offset="0.52169871"
       id="stop5711" /><stop
       style="stop-color:#fbdebf;stop-opacity:1;"
       offset="0.75"
       id="stop7165" /><stop
       style="stop-color:#63e2c9;stop-opacity:1;"
       offset="1"
       id="stop5708" /></linearGradient><linearGradient
     id="linearGradient656-1"><stop
       style="stop-color:#00a7d6;stop-opacity:1;"
       offset="0"
       id="stop5701" /><stop
       style="stop-color:#63e2c9;stop-opacity:1;"
       offset="1"
       id="stop5703" /></linearGradient><linearGradient
     inkscape:collect="always"
     xlink:href="#linearGradient656"
     id="linearGradient7169"
     x1="246.87134"
     y1="778.99927"
     x2="687.76624"
     y2="329.83109"
     gradientUnits="userSpaceOnUse"
     gradientTransform="matrix(2.0243842,0,0,1.9467048,-499.76246,-492.48169)" /></defs><sodipodi:namedview
   id="namedview41"
   pagecolor="#ffffff"
   bordercolor="#000000"
   borderopacity="0.25"
   inkscape:showpageshadow="2"
   inkscape:pageopacity="0.0"
   inkscape:pagecheckerboard="0"
   inkscape:deskcolor="#d1d1d1"
   showgrid="false"
   inkscape:zoom="0.74804629"
   inkscape:cx="628.30336"
   inkscape:cy="449.17006"
   inkscape:window-width="2494"
   inkscape:window-height="1371"
   inkscape:window-x="1986"
   inkscape:window-y="32"
   inkscape:window-maximized="1"
   inkscape:current-layer="Layer_1" />















<path
   id="path32"
   d="m 439.94575,393.67735 c -6.38453,7.00536 -12.23564,13.53623 -18.08676,20.06707 -1.40875,-0.75527 -2.8175,-1.51053 -4.22625,-2.26574 2.30374,-14.79572 -2.60228,-30.6105 3.53921,-44.22045 6.6047,-14.63639 20.32292,-24.93069 35.29896,-33.77986 -4.06953,20.5149 6.25367,44.00832 -16.52516,60.19898 z m 3.3291,4.95998 c 2.70512,-2.35098 4.29824,-5.11367 8.64844,-4.99475 0,14.33772 0.25278,28.67525 -0.0701,43.00069 -0.3346,14.85598 -1.4971,29.69606 -1.75652,44.55172 -0.12202,6.9942 -2.53838,12.50638 -7.7654,17.15571 -8.06658,7.17526 -16.05638,14.4305 -24.03375,21.61123 -5.00345,-3.36623 -3.55653,-7.62083 -3.46977,-11.16705 0.63205,-25.84739 1.61106,-51.68672 2.29231,-77.5332 0.14616,-5.54462 2.13657,-9.89772 6.29623,-13.6946 6.58278,-6.00878 12.91063,-12.27563 19.85841,-18.92975 z M 726.35535,40.359256 c 11.72447,1.487356 20.49578,6.69662 27.85802,14.148897 17.14907,17.358697 17.12187,33.9373 1.97904,52.851367 -19.71354,24.62285 -41.2094,22.39003 -58.75767,15.24636 -20.07583,-8.17256 -29.19148,-29.791275 -21.41544,-49.370966 8.40187,-21.155617 26.38459,-33.127136 50.33605,-32.875658 m -18.99369,37.343436 c -4.35505,7.768036 -0.96362,13.669593 5.28721,18.457566 5.15747,3.950512 10.59836,3.166438 15.59124,-0.674642 6.78039,-5.21637 7.86055,-13.582376 2.60721,-19.528531 -5.64983,-6.394886 -14.68703,-6.172148 -23.48566,1.745607 z M 55.181221,1024 c -7.631187,-6.278 -14.491523,-12.4814 -21.449657,-18.5818 -3.971052,-3.4815 -3.184297,-6.44891 0.325438,-9.81063 35.123908,-33.64406 70.195028,-67.33914 105.223698,-101.07485 3.98483,-3.83782 7.08546,-3.22376 11.1802,0.19985 22.75307,19.0235 22.87033,18.97823 1.68923,39.33344 -27.67232,26.59335 -55.370638,53.16213 -83.18267,79.62009 -4.006221,3.8112 -7.334631,8.5503 -13.786239,10.3139 z m 9.574001,-70.35181 c -12.249427,11.62629 -24.117849,22.64897 -35.647102,33.99046 -4.6951,4.61861 -8.068443,5.07894 -13.342106,0.28587 -20.7153448,-18.82911 -20.9529077,-18.72337 -1.090742,-37.81887 29.760288,-28.61172 59.740877,-57.01252 89.350748,-85.76684 5.55429,-5.39383 9.50439,-5.93991 14.70193,0.0627 3.85684,4.45413 8.38371,8.43556 12.97391,12.22192 5.38333,4.44081 5.03322,8.00841 0.0437,12.73237 -22.31048,21.12299 -44.341282,42.51917 -66.990441,64.29234 z M 473.43472,309.09686 c 24.10688,-21.70802 45.58773,-44.89825 67.99973,-67.22091 4.54275,-4.52469 4.81039,-9.60806 4.7968,-15.19758 -0.0314,-12.89454 13.6857,-32.45047 25.89897,-37.24404 6.26321,-2.45822 9.29682,2.24197 12.66836,5.54807 3.46111,3.3942 1.25276,6.50056 -1.56549,9.23401 -2.37207,2.30061 -4.75131,4.59443 -7.09981,6.91702 -12.33548,12.199 -14.78774,26.12474 -6.38265,41.32429 2.9738,5.3779 0.74071,8.47481 -2.71978,11.87431 -8.71905,8.56568 -17.40558,17.16252 -26.19048,25.66516 -5.20992,5.0425 -8.42676,10.69701 -7.95921,18.11783 1.37583,21.83395 -17.45772,29.76821 -30.16517,42.52013 -4.90886,-5.16364 -1.54015,-10.56109 -4.30052,-15.99795 -9.67358,1.19845 -19.76288,1.9419 -29.21994,-4.01222 -9.04987,-5.69784 -9.93843,-7.39289 -2.71903,-14.8684 2.06145,-2.13456 4.2936,-4.11656 6.95822,-6.65972 z M 699.4696,447.54163 c 5.08644,-2.70768 10.03976,-2.93039 14.49392,-1.81786 7.14961,1.78589 12.11988,-0.72894 17.43834,-4.85463 5.26321,-4.08274 7.19827,-7.76418 5.63266,-14.75386 -4.28193,-19.11748 6.48065,-30.49919 21.75224,-41.87066 24.81342,-18.47659 56.75319,-1.77929 67.29965,17.0519 13.65695,24.38513 -7.94592,60.73305 -36.98502,62.64536 -10.14888,0.66842 -20.29169,0.591 -29.6127,-4.19841 -4.04245,-2.07717 -7.67879,-1.74126 -11.34342,0.75009 -2.75003,1.86966 -5.763,3.39545 -8.43163,5.35992 -14.22234,10.46954 -29.55484,16.55079 -47.85066,11.88804 -6.76792,-1.72475 -13.652,3.3358 -21.93081,-0.29514 7.43503,-12.4516 19.09104,-20.15976 29.53743,-29.90475 m 84.8912,-13.42246 c 8.17279,-0.82738 13.17148,-5.57075 14.01749,-12.96415 0.72554,-6.34075 -3.42665,-10.97766 -9.72494,-13.21678 -8.21181,-2.9194 -17.07184,1.12235 -19.63841,8.75043 -2.59472,7.71155 3.21352,15.08584 15.34586,17.4305 z m 25.15172,-179.54834 c 12.99714,-12.31443 25.35052,-24.28017 38.03035,-35.91698 5.17587,-4.75013 7.56512,-9.25551 6.69008,-16.82954 -2.86868,-24.82938 13.2802,-46.04441 38.30774,-52.22223 23.10188,-5.70246 48.02341,5.34246 57.28992,25.6988 7.81077,17.15818 4.2802,32.8292 -7.42709,47.29094 -13.61408,16.81725 -31.63053,21.47305 -52.27258,16.37412 -7.41316,-1.83123 -11.7282,-0.32064 -16.66387,4.6893 -14.14153,14.35411 -28.78087,28.25427 -43.20016,42.35586 -2.33797,2.28641 -5.24483,4.30845 -5.48564,7.88895 -0.78807,11.723 -9.57862,16.54253 -19.34322,19.68757 -14.26669,4.5949 -29.1204,5.39538 -43.9692,3.20083 -10.92121,-1.61407 -22.12034,0.65777 -35.14129,-2.57978 8.25433,-8.99709 15.50497,-17.12432 23.05479,-24.98617 2.12867,-2.21647 5.17118,-0.83604 7.6458,0.0709 9.62498,3.52797 16.85613,0.0198 23.47737,-6.62574 9.32794,-9.36228 18.98083,-18.42514 29.007,-28.09688 m 98.62758,-42.66549 c 1.4911,-0.72794 3.11403,-1.28069 4.45156,-2.21252 8.1928,-5.70727 10.75936,-14.88842 6.5329,-22.99806 -3.6766,-7.05448 -12.09093,-10.63035 -19.40647,-8.24694 -8.36097,2.72395 -13.77654,12.10155 -12.15299,21.04347 1.50001,8.26143 8.77021,13.13995 20.575,12.41405 z M 757.36979,353.54068 c -20.53939,-3.7314 -35.23471,2.27268 -49.82042,16.54402 -109.8849,107.51648 -220.69015,214.16344 -331.22647,321.0641 -15.86407,15.34217 -15.91053,15.29773 -32.11382,0.83017 -9.60786,-8.57863 -9.9453,-8.89896 -0.64009,-17.96521 53.28657,-51.91812 106.6053,-103.8071 160.18497,-155.44517 64.04455,-61.72399 128.45454,-123.0976 192.45026,-184.86834 8.33117,-8.04156 16.5383,-12.1252 29.07035,-11.53308 20.46021,0.96664 40.9818,3.53856 61.55592,1.43438 1.66237,-0.16995 3.34277,0.37224 5.46895,3.66837 -11.60684,8.22661 -16.8749,23.81462 -34.92965,26.27076 z m 220.18985,-33.10206 c -22.82078,0.213 -49.63862,22.13919 -50.68473,42.98339 -0.2087,4.1585 -0.69008,8.96758 1.13081,12.41405 3.50275,6.63001 1.18393,10.5526 -3.68503,15.13639 -49.14759,46.27057 -98.18044,92.65756 -147.08811,139.16278 -4.25016,4.04135 -7.84548,4.64862 -13.36014,2.4752 -9.91965,-3.90908 -20.06655,-4.37485 -30.49229,-0.46005 -18.23031,6.84531 -27.26469,20.37044 -31.10513,37.86949 -2.66664,12.15003 -4.14418,13.55518 -16.7249,11.05668 -12.74963,-2.53212 -25.52611,-1.46727 -38.29329,-1.17106 -8.69208,0.20174 -15.65363,3.56347 -21.73841,10.23541 -10.20816,11.19352 -21.6544,21.33962 -32.47316,32.02557 -2.42114,2.39143 -6.12295,4.2741 -4.98584,9.80956 10.90625,-1.65582 21.98465,0.79334 33.7226,-2.39536 5.96292,-1.75147 12.13098,-2.14227 15.98156,-5.22036 14.90424,-11.91428 32.32827,-10.83709 49.77534,-10.63843 5.39061,0.0615 10.86835,0.27435 16.15553,-0.5209 8.57372,-1.28929 16.35818,0.28386 24.59312,2.73755 34.50703,10.28185 65.83079,-12.45459 65.88737,-47.45473 0.008,-4.55344 1.09893,-8.06354 4.57067,-11.23157 20.5458,-18.74795 40.27025,-38.25722 58.92066,-58.77756 28.91096,-31.81002 61.70977,-59.74173 94.7309,-87.45344 3.16026,-2.65211 5.81022,-3.23873 9.95586,-2.18243 24.92175,6.35042 55.73327,-12.27666 60.96477,-36.54635 3.5216,-16.33639 -6.9707,-34.86653 -22.7348,-44.7666 -6.33918,-0.78853 -12.07449,-3.02648 -16.83555,-6.5207 -0.56459,-0.095 -1.11928,-0.24031 -1.68829,-0.31179 -1.47706,-0.18552 -2.97814,-0.26894 -4.49952,-0.25474 z m -0.77496,30.68342 c 5.73021,0.49805 11.81297,4.12288 13.99671,9.03772 3.1454,7.07871 -0.80387,15.80511 -8.99109,19.12106 -7.87575,3.18977 -13.56625,-0.1036 -18.00991,-6.3268 -3.46508,-10.80774 -0.33818,-18.40524 7.54795,-21.21984 1.67431,-0.59756 3.54627,-0.77818 5.45634,-0.61214 z M 746.52284,557.41961 c 5.1465,-0.11714 10.11825,2.64371 14.85865,8.27349 4.97695,11.5855 2.18352,19.88421 -6.93904,24.03724 -8.47562,3.8586 -19.00245,1.27206 -23.27253,-5.72225 -4.50245,-7.37499 -1.7739,-18.11278 5.91106,-23.26539 3.20068,-2.14604 6.35395,-3.25282 9.44186,-3.32309 z m -445.75882,45.00638 c -7.4032,7.15079 -14.38654,13.73444 -21.18559,20.48971 -4.02974,4.00379 -7.57751,4.52801 -11.92082,0.22692 -6.04722,-5.98816 -12.52168,-11.57756 -19.26775,-17.75357 9.00663,-9.32146 17.24855,-18.16992 25.84619,-26.68627 20.66494,-20.46953 41.41759,-40.8587 62.34364,-61.0805 3.27104,-3.161 5.39551,-6.09353 5.61521,-10.76389 2.48086,-52.73375 4.87357,-105.47465 8.00281,-158.17447 0.72888,-12.27354 1.56549,-24.54792 2.11143,-36.83775 0.39953,-8.99465 5.30338,-15.98694 11.60573,-22.04069 34.34758,-32.99264 68.81284,-65.87192 103.2323,-98.79527 14.81259,-14.16874 29.55108,-28.40978 44.45713,-42.48691 4.2686,-4.03124 5.25366,-7.7819 3.46329,-13.73685 -9.11077,-30.30534 11.23839,-61.912384 42.93248,-67.672165 19.71477,-3.582722 40.72715,6.664811 52.51204,25.609304 11.25656,18.095241 10.2855,38.130061 -2.31636,53.710721 -14.88449,18.40292 -33.99086,26.05053 -57.82356,20.71932 -6.13753,-1.37293 -10.1842,-0.0574 -14.37852,4.02927 -40.73356,39.68847 -81.57853,79.27113 -122.38506,118.89033 -1.18566,1.15112 -2.09382,2.68523 -3.4733,3.51528 -20.58165,12.38382 -21.8375,32.07179 -22.66924,52.59222 -2.30898,56.96643 -5.34736,113.9057 -8.15721,170.85307 -0.40724,8.25258 -4.87365,14.66848 -10.7486,20.30982 -22.42683,21.53495 -44.86506,43.05908 -67.79624,65.08237 M 548.76445,131.38056 c 11.14064,8.97456 17.63154,9.75414 26.92302,3.23307 9.77522,-6.86041 12.98786,-14.64295 9.58075,-23.20944 -4.73365,-11.902488 -16.73637,-16.898391 -28.67956,-11.937471 -12.68403,5.268721 -16.17407,17.496001 -7.82421,31.913841 z M 220.03231,929.67011 c -28.09444,-23.42948 -52.86623,-49.16202 -79.1852,-73.35312 -11.4566,-10.53033 -22.53505,-21.44251 -33.73636,-32.22828 -26.972364,-25.97195 -27.418593,-62.44309 -0.75855,-88.19153 35.45082,-34.23856 71.09852,-68.28889 106.74562,-102.339 10.08374,-9.63194 10.09326,-9.38087 19.85037,-0.0847 58.68922,55.91785 117.44698,111.76954 176.16442,167.66008 9.39894,8.94635 9.59174,9.20681 0.36186,18.20165 -35.29045,34.3917 -71.23987,68.1722 -105.97845,103.06913 -27.29324,27.4176 -55.43222,24.12125 -83.46371,7.26568 m 105.314,-80.68094 c 9.75008,-9.42307 19.11087,-19.26294 29.37947,-28.13063 7.53311,-6.50562 7.6015,-10.87395 0.14959,-17.84876 -40.10842,-37.54098 -79.68941,-75.60271 -119.5448,-113.39462 -4.24892,-4.02898 -8.28689,-8.45991 -13.70043,-10.87619 -0.96808,0.33484 -1.7633,0.38343 -2.1902,0.7899 -30.18821,28.73611 -60.40174,57.44824 -90.46356,86.30639 -6.23883,5.98897 -6.30537,13.32299 -2.97579,20.75358 2.71656,6.06278 7.3135,10.85791 12.13062,15.42502 31.21128,29.59195 62.46463,59.14291 93.65608,88.75425 5.05583,4.79975 10.18048,9.41176 16.53794,12.66735 8.87176,4.54299 16.67281,3.70486 23.86732,-3.27056 17.3273,-16.79996 34.77873,-33.48145 53.15368,-51.17573 z m 525.76715,-262.4343 c 14.86559,-13.71879 29.15427,-27.02753 43.64153,-40.13333 4.18011,-3.7816 5.20775,-7.44818 3.29764,-12.87161 -5.70075,-16.18734 -1.97964,-30.78442 10.11491,-43.12021 7.85559,-8.01216 15.9697,-15.87504 24.65833,-23.02962 20.22728,-16.65595 56.81162,-10.1565 72.20573,12.45616 13.2571,19.4733 15.5908,46.38615 -4.9168,65.82232 -14.80113,14.02771 -28.66475,27.77405 -51.71264,25.33176 -2.00709,-0.21269 -4.28811,0.0974 -5.97802,-0.7211 -13.2791,-6.43077 -21.82253,0.6088 -30.60842,8.96595 -34.76126,33.06536 -70.94219,64.83582 -104.27434,99.17123 -18.19796,18.7458 -38.49134,26.08101 -64.00101,26.99377 -69.38804,2.48292 -138.73606,6.12847 -208.20102,5.82039 -10.03548,-0.0444 -17.74573,2.52201 -25.19945,9.52035 -20.25399,19.01625 -41.53059,37.0214 -62.14852,55.68594 -5.17035,4.68046 -8.88472,5.41582 -14.2243,0.0831 -11.68919,-11.67405 -23.75804,-23.01873 -36.08881,-34.06756 -5.96882,-5.3481 -5.12998,-9.064 0.23384,-14.32547 66.33094,-65.06348 132.45796,-130.31909 198.70484,-195.4617 6.33175,-6.22628 12.09293,-13.12827 20.29143,-17.15177 0.99662,-4.49237 -6.3812,-5.54272 -3.76682,-10.8017 5.72299,-2.10498 7.84843,3.15864 10.67584,6.02049 15.28408,15.47097 15.1773,15.5405 0.55824,30.98581 -4.07496,4.30511 -7.81621,8.47572 -8.25212,15.03895 -0.45841,6.90139 -6.76817,10.96447 -11.38506,15.52647 -29.63269,29.28006 -59.4721,58.36658 -89.12277,87.62988 -4.31182,4.25556 -11.36708,8.85724 -9.12436,14.8984 2.64248,7.11764 11.30418,4.08494 17.26631,3.92667 68.38069,-1.81447 136.75332,-3.92074 205.12473,-6.04483 8.4052,-0.26105 16.78853,-1.46037 25.18768,-1.52442 7.69387,-0.0584 12.37105,-4.67534 17.14349,-9.15952 26.53102,-24.9286 52.94475,-49.97284 79.89992,-75.46487 m 127.78567,-93.93007 c -13.32145,-7.58388 -20.71236,-7.09779 -31.91149,2.41574 -4.03689,3.42949 -7.89328,7.08771 -11.55135,10.89109 -9.1122,9.4744 -10.0426,18.96446 -2.86298,26.81225 8.02526,8.77204 21.90076,10.01369 31.77088,2.36577 4.96359,-3.84589 9.45519,-8.32448 13.77258,-12.85832 9.65227,-10.13606 9.97303,-16.81552 0.78236,-29.62653 z M 529.28881,468.28816 c -0.12202,8.31152 -6.21642,12.19002 -10.78573,16.66468 -42.52882,41.64848 -85.27596,83.09081 -127.89718,124.65221 -19.41334,18.93048 -38.86488,37.83076 -57.91675,57.09428 -5.83654,5.90153 -10.18623,5.91603 -15.6146,-0.0432 -3.98686,-4.37675 -8.4682,-8.37686 -13.01825,-12.22916 -5.40815,-4.57886 -4.4452,-8.0065 0.41607,-12.7023 60.4316,-58.37238 120.60156,-116.99525 181.05692,-175.34477 5.6443,-5.44783 8.79758,-10.83977 8.19016,-18.69882 -0.64824,-8.38747 1.04764,-17.06457 -0.45963,-25.24378 -3.43377,-18.63385 7.43402,-30.64492 19.67318,-41.75954 42.66979,-38.74915 83.55927,-79.21457 125.20063,-118.95519 3.99181,-3.80964 4.32272,-7.06311 2.30117,-11.99563 -9.26221,-22.59801 -4.82152,-42.56653 13.49519,-59.50566 5.58892,-5.16851 10.96249,-10.57149 16.78371,-15.48472 15.964,-13.47379 34.14034,-16.46293 53.57921,-8.51113 7.28514,2.98005 12.30225,2.63299 17.96653,-2.77731 32.53423,-31.07509 65.24562,-61.97979 98.06934,-92.77234 5.00067,-4.691206 5.49713,-9.383688 4.24102,-15.747429 -3.38933,-17.170423 7.50185,-36.859417 25.59913,-47.1219184 17.02302,-9.653295 34.27922,-11.2404451 51.24148,0.2890376 14.79057,10.0533098 22.89047,30.7361058 18.76002,47.3296628 -1.6505,6.631024 -4.85635,11.966512 -11.87706,14.658521 -7.66102,2.937577 -13.53042,8.459027 -19.75457,13.399401 -9.10638,7.228131 -19.20038,10.794491 -30.96117,7.897249 -4.37311,-1.077327 -7.77704,-0.467962 -11.04231,2.597354 -34.26232,32.164412 -68.56948,64.284562 -102.92039,96.361462 -3.41675,3.19061 -3.70761,6.40862 -1.88241,10.50591 8.14882,18.29219 4.88972,33.72532 -11.49601,46.90003 -11.09247,8.91879 -21.13346,19.04057 -32.31342,27.9562 -11.38591,9.07997 -24.0219,11.6141 -37.83588,7.61537 -8.10506,-2.34622 -13.4659,-0.48038 -19.36299,5.35425 -41.12264,40.68823 -82.57482,81.06933 -124.0972,121.38142 -5.19663,5.04516 -7.15713,10.74287 -7.17523,17.47811 -0.0356,13.29643 -0.0986,26.59288 -0.16296,40.7577 M 680.26925,252.68696 c 20.29154,9.42863 54.98308,-11.83435 54.9465,-33.6936 -0.003,-1.28834 -0.1286,-2.59598 -0.37896,-3.86146 -2.08529,-10.54533 -8.93909,-17.63445 -19.04915,-20.87716 -9.2832,-2.97763 -18.65402,-2.21227 -26.21567,5.21524 -4.23955,4.16426 -8.78822,8.03623 -13.06694,12.16514 -14.37914,13.87575 -13.51793,27.57133 3.76422,41.05184 M 908.79471,50.871523 c 2.99381,-9.901068 0.38116,-16.219654 -8.14339,-19.694055 -7.39522,-3.014049 -19.45381,0.744927 -23.69644,7.932072 -4.17875,7.078678 -2.65157,13.757276 3.60655,19.081262 6.33733,5.391508 15.86099,4.837578 22.81584,-1.046979 1.73809,-1.470661 3.11751,-3.333422 5.41744,-6.2723 z"
   style="fill:url(#linearGradient7169);fill-opacity:1;stroke-width:1.98517"
   inkscape:export-filename="path32.svg"
   inkscape:export-xdpi="96"
   inkscape:export-ydpi="96" />



</svg>
