<svg xmlns="http://www.w3.org/2000/svg" xmlns:xlink="http://www.w3.org/1999/xlink" viewBox="0 0 1100 687"><defs><linearGradient id="bb2-c" x1="485" x2="643.17" y1="81.27" y2="427.43" data-name="unnamed-gradient-16" gradientUnits="userSpaceOnUse"><stop offset="0" stop-color="#64a9f6"/><stop offset="1" stop-color="#07203b"/></linearGradient><linearGradient id="bb2-a" x1="749.65" x2="876.59" y1="279.51" y2="556.74" data-name="unnamed-gradient-9" gradientUnits="userSpaceOnUse"><stop offset="0" stop-color="#f3b6d7"/><stop offset="1" stop-color="#e73d8e"/></linearGradient><linearGradient xlink:href="#bb2-a" id="bb2-d" x1="764.51" x2="846.21" y1="201.22" y2="659.37" data-name="unnamed-gradient-9"/><linearGradient xlink:href="#bb2-a" id="bb2-e" x1="858.95" x2="972.75" y1="362.37" y2="738.81" data-name="unnamed-gradient-9"/><linearGradient xlink:href="#bb2-a" id="bb2-f" x1="960.17" x2="1077.69" y1="480.28" y2="732.79" data-name="unnamed-gradient-9"/><clipPath id="bb2-b"><path d="M960.69 38.06C903.55 20.33 843.78 2.39 784.83 12.58 725.88 22.77 668.8 70.7 669.8 130.52c.24 14.36 3.69 29.07-.29 42.87-9.1 31.49-48.4 39.87-77.54 54.9-39.63 20.44-66.15 60.63-79.78 103.09-13.63 42.46-15.94 87.59-18.14 132.13-3.19 64.67-5.23 134.01 29.33 188.77 22.02 34.88 56.59 59.72 91.35 81.92 138.01 88.14 293.39 148.95 454.57 177.91 64.04 11.51 132.47 17.55 192.07-8.55 71.08-31.13 117.13-104.04 134.37-179.7 17.24-75.66 9.71-154.59-.43-231.53-10.28-78.03-23.31-156.29-50.72-230.06-27.41-73.77-70.15-143.39-131.64-192.51C1151.46 20.65 1069.38-6.36 992 8.02c-17 5-21.42 20.96-31.31 30.06Z" style="stroke-width:0;fill:none"/></clipPath></defs><g style="clip-path:url(#bb2-b)"><path d="M57.47 0h1098.01v694.25H57.47z" style="fill:url(#bb2-c);stroke-width:0"/></g><path d="M1231.28 193.67c-26.19-35.42-82.12-35.62-119.55-12.4-37.43 23.23-60.75 63.05-82.6 101.3-26.6 46.57-53.19 93.15-79.79 139.72-12.43 21.77-27.72 45.69-52.29 50.64-30.22 6.09-57.3-19.87-73.23-46.27-15.27-25.31-26.14-53.06-41.17-78.52-15.03-25.46-35.31-49.33-62.7-60.44-36.33-14.74-79.23-3.93-111.07 18.96-31.84 22.88-54.43 56.25-74.26 90.08-56.52 96.46-96.08 202.83-116.33 312.79 36.07 45.26 88.82 72.75 144.49 88.58 144.57 41.11 300.15 42.77 445.56 4.73 37.54-9.82 75.31-22.71 105.47-47.13 38.02-30.79 60.2-76.76 77.85-122.39 47-121.52 70.3-252.15 68.21-382.42-.36-22.37-15.29-39.26-28.6-57.25Z" style="fill:url(#bb2-a);stroke-width:0"/><path d="M1262.21 277.96c-17.44 26.76-47.6 44.81-79.42 47.53-31.82 2.72-64.61-9.94-86.34-33.35-37.07-39.93-40.58-104.95-83-139.15-36.67-29.57-92.59-24.92-132.31.4s-65.91 67.12-86.05 109.7c-20.13 42.59-35.69 87.58-60.87 127.39-11.19 17.69-24.58 34.56-42.31 45.69-17.73 11.14-40.43 15.85-59.99 8.41-43.31-16.47-52.49-80.84-95.88-97.07-21.33-7.98-46-1.44-64.54 11.78-18.54 13.22-31.97 32.31-44.08 51.59-53.54 85.21-88.6 181.96-102.07 281.69 75.54 89.65 183.51 151.67 297.82 177.68 114.31 26.01 233.63 22.61 349.65 5.78 58.98-8.55 118.03-20.72 172.33-45.28 54.3-24.56 103.94-62.44 134.37-113.68 29.7-50 39.42-109.1 46.08-166.86 5.61-48.64 9.44-98.05 1.8-146.41s-29.17-92.68-65.18-125.86Z" style="fill:url(#bb2-d);stroke-width:0"/><path d="M1254.82 353.99c-24.64-12-54.8-3.6-77.72 11.41-22.92 15.02-41.3 36-63.24 52.42-21.94 16.42-50.04 28.39-76.48 21.2-20.26-5.52-35.89-21.17-51.04-35.72-23.41-22.48-48.33-43.89-77.11-58.9-28.77-15.01-61.9-23.32-93.96-18.29-58.47 9.17-101.27 59.14-133.44 108.81-53.79 83.05-93.64 175.09-117.39 271.14 32.92 15.86 65.05 36 99.36 48.56 146.23 53.52 314.85 42.32 452.71-30.08 19.55-10.27 38.8-21.94 53.6-38.34 14.29-15.82 23.78-35.33 32.26-54.89 37.09-85.62 48.77-184.09 52.44-277.33Z" style="fill:url(#bb2-e);stroke-width:0"/><path d="M1225.69 400.87c-16.84-27.86-55.08-37.4-86.29-28.14-31.21 9.27-55.9 33.6-74.17 60.55-18.27 26.95-31.37 57.03-48.08 84.98-11.75 19.65-28.65 40.14-51.53 40.76-33.28.9-54.95-40.21-88.13-42.92-21.3-1.74-40.26 13.05-54.8 28.71-36.53 39.35-60.71 89.99-68.35 143.13 9.06 15.14 26.18 26.22 42.9 31.84 16.72 5.62 34.54 7.01 52.16 7.76 93.26 3.93 187.21-9.4 275.69-39.12 11.33-3.81 40.33 1.54 48.92-6.77 11.35-10.98-1.73-36.79 2.11-52.11 19.11-76.34 30.46-152.32 49.57-228.66Z" style="fill:url(#bb2-f);stroke-width:0"/></svg>