<svg data-name="Calque 1" xmlns="http://www.w3.org/2000/svg" viewBox="0 0 300 300"><path d="m124.94 183.74 19.64 80.15c-27 7.32-60.35-2.38-79.22-23Z" fill="#24221f"/><path d="m24.11 154.41 100.83 29.33-75.83 72.65a104.91 104.91 0 0 1-25-101.98Z" fill="#363f45"/><path d="m94.57 59.89 30.37 123.85L2.5 148.12a127.43 127.43 0 0 1 92.07-88.23Z" fill="#4b5f6d"/><path d="M166.85 39.7a149.48 149.48 0 0 1 66.43 40.23L124.94 183.74 89.2 38a149.36 149.36 0 0 1 77.65 1.7Z" fill="#5e7c88"/><path d="M249.52 64.37a172.47 172.47 0 0 1 41.07 167.57l-165.65-48.2Z" fill="#feb41c"/></svg>