<svg version="1.1" id="svg2" xmlns="http://www.w3.org/2000/svg" xmlns:xlink="http://www.w3.org/1999/xlink" x="0" y="0" viewBox="0 0 294 294" xml:space="preserve"><path class="st0" d="M116.9 174.9s5.1-19.4-17.1-44.4l-.7-.8c-21.9-26-18.7-64.8 7.3-86.8 11.1-9.4 25.3-14.6 39.9-14.5h1.4c34 0 61.6 27.6 61.7 61.6 0 14.5-5.1 28.6-14.5 39.7l-.8.8c-11.7 11.7-17.9 27.9-17.1 44.4 46.9-16.1 71.9-67.2 55.7-114.2C220.8 26 188.8 2 152.1.2H142C94 3 56.5 42.5 56.4 90.5c.2 38.1 24.5 72 60.5 84.4"/><path class="st0" d="M233.5 246.4c1.7-.7 3.5-1.2 5.4-1.6 2-.4 4.1-.7 6.2-.8v-1.7c-.2-1.3-.5-2.6-1-3.8l-.7-2c-.2-.6-.6-1.2-.9-1.7l-.9-1.6c-4.2-.7-8.3-1.9-12.2-3.5-2.9-1.2-5.6-2.9-8-5.1-1.5-1.2-2.4-3.1-2.2-5.1.1-.8.5-1.6 1.1-2.2.6-.8 1.4-1.4 2.3-1.8l-2-1.1-2.2-1.1-2.4-1.2c-1.6-.8-3.2-1.5-4.6-2.1l-2.2-.9c-1.7.2-3.4.4-5.1.4-1.8.1-3.6.1-5.4 0-3.4-.2-6.8-.8-10.2-1.7-1.4-.4-2.8-.8-4.2-1.4-1.1-.5-2.1-1-3.1-1.6-1.6-1.2-2.7-2.4-2.7-3.7l-2.5-.1-6.9-1c-.1.4-.2.9-.4 1.3l-.5 2.5c-1 5.1 1.9 10.1 6.9 11.7 12.2 3.5 21.4 9.4 24.1 16.6 5.4 14.5-17.3 28.8-51.7 28.8s-57.4-14.2-52-28.8c2.6-7 11.5-12.8 23.3-16.4 5.3-1.6 8.4-7 7.2-12.4l-.8-3.4-4.6.6c-1.9.1-3.7.4-5.5.9l-2.5.4c-.1 1.5-1 2.9-2.3 3.7-1 .6-2 1.2-3 1.7-1.3.6-2.6 1.1-4 1.5-1.7.5-3.4.8-5.1 1.1-1.7.3-3.4.5-5.1.7-3.5.4-7.1.4-10.7 0l-.6.2-1.5.7-4.5 2c-1.6.8-3.1 1.7-4.3 2.4l-1.4.8-.5.4c1.9.6 3.3 2.1 3.9 4 .6 1.6-.3 3.3-1.7 5.1-1 1-2.1 1.9-3.2 2.6-1.5.9-3 1.8-4.6 2.5-3.9 1.8-8 3-12.2 3.8-.3.5-.5 1.1-.7 1.6-.3 1-.8 2.3-1.3 3.7l-.7 4c-.1.6-.1 1.2 0 1.8 4.2 0 8.3.7 12.2 2.1 3 .9 5.7 2.6 7.6 5.1 1.5 2.4 1.7 5.4.5 8-1.3 3.6-3.8 6.7-6.9 8.8l.6.5 1.7 1.3c1.5 1 3.4 2.5 5.6 3.8l6.6 3.5c.8.4 1.5.8 2.3 1.1l1 .4c5.3-2.2 11-3.5 16.7-4 2.8-.3 5.6-.3 8.3 0 2.7.1 5.5.4 8.1 1 2.5.6 4.9 1.3 7.3 2.3 2.1 1 4.2 2.1 6.1 3.5 3.7 2.4 6.4 6 7.9 10.2h4.8c2.9 0 6.8.3 10.7 0 3.9-.3 7.8 0 10.7-.4l5.1-.5c.4-2 1.3-3.9 2.5-5.6.6-.8 1.3-1.6 2-2.3.7-.8 1.5-1.5 2.3-2.2 1.8-1.4 3.7-2.6 5.8-3.5 2.2-1.1 4.6-1.9 7-2.5 2.6-.6 5.2-1 7.9-1.2 2.8-.1 5.5-.1 8.3 0 5.8.3 11.5 1.5 17 3.5l3-1.6c2.1-1.1 4.1-2.3 6-3.7 1.9-1.4 3.9-2.7 5.1-3.9l2-1.8c-3.3-2.2-6-5.1-7.8-8.6-.6-1.3-.9-2.6-.9-4-.1-1.3.2-2.6.9-3.6 1.5-2.5 3.9-4.4 6.7-5.4"/><defs><path id="SVGID_1_" d="M102 90.2c.1 11.3 5.3 21.9 14.3 28.8 12.9 12.1 20.2 29 20.3 46.7.6 21.9-.9 47.2-1.8 60.1-11.7 1.6-20 5.6-20 10.2 0 6.1 14.6 13.1 32.6 13.1s32.6-7 32.6-13.1c0-4.5-8.2-8.5-20-10.2-.9-12.9-2.4-38.2-1.8-60.1.1-17.7 7.4-34.6 20.3-46.7 8.9-6.9 14.1-17.5 14.2-28.8 0-21.6-20.3-38.9-45.7-38.9s-45.3 17.3-45.7 38.9"/></defs><clipPath id="SVGID_00000061469629567579916340000008744182069320945593_"><use xlink:href="#SVGID_1_" overflow="visible"/></clipPath><g clip-path="url(#SVGID_00000061469629567579916340000008744182069320945593_)"><linearGradient id="SVGID_00000073711239638338253020000003172502341738008241_" gradientUnits="userSpaceOnUse" x1="-1073.121" y1="186.275" x2="-1060.522" y2="186.275" gradientTransform="scale(-23.3 23.3) rotate(81.87 -433.346 708.247)"><stop offset="0" stop-color="#4ab4e4"/><stop offset=".04" stop-color="#43b3e4"/><stop offset=".11" stop-color="#2fb1e3"/><stop offset=".13" stop-color="#26b0e3"/><stop offset=".48" stop-color="#3189c6"/><stop offset=".81" stop-color="#3a69af"/><stop offset="1" stop-color="#3d5da6"/></linearGradient><path fill="url(#SVGID_00000073711239638338253020000003172502341738008241_)" d="m74.2 245.2 29.5-206.6 117.1 16.7-29.5 206.6z"/></g></svg>