<svg id="Calque_1" data-name="Calque 1" xmlns="http://www.w3.org/2000/svg" viewBox="0 0 64 32"><rect x="22.52" y="6.3" width="7.09" height="0.47" transform="translate(1.5 17.43) rotate(-38)" style="fill:#1ef962"/><rect x="20.75" y="16.11" width="7.59" height="0.47" style="fill:#1ef962"/><rect x="20.65" y="6.32" width="3.64" height="0.47" transform="translate(14.86 28.68) rotate(-87.29)" style="fill:#1ef962"/><rect x="16.55" y="10.41" width="0.47" height="5.88" transform="translate(-4.61 14.89) rotate(-42.61)" style="fill:#1ef962"/><rect x="13.7" y="7.8" width="4.23" height="0.47" transform="translate(0.02 16.12) rotate(-54.04)" style="fill:#1ef962"/><rect x="18.35" y="4.36" width="3.51" height="0.47" transform="translate(-0.34 7.31) rotate(-20.44)" style="fill:#1ef962"/><rect x="25.95" y="0.97" width="0.47" height="5.42" transform="translate(22.13 29.81) rotate(-89.19)" style="fill:#1ef962"/><rect x="32.37" y="3.03" width="0.47" height="4.08" transform="translate(14.18 32.43) rotate(-64.88)" style="fill:#1ef962"/><rect x="30.06" y="4.79" width="0.47" height="4.39" transform="translate(-0.77 5.68) rotate(-10.58)" style="fill:#1ef962"/><rect x="28.16" y="13.12" width="4.03" height="0.47" transform="translate(9.85 39.35) rotate(-75.84)" style="fill:#1ef962"/><rect x="19.85" y="13.07" width="10.8" height="0.47" transform="translate(-3.29 13.42) rotate(-28.02)" style="fill:#1ef962"/><rect x="21.46" y="18.7" width="7.58" height="0.47" transform="translate(-6.16 15.89) rotate(-31.33)" style="fill:#1ef962"/><rect x="21.73" y="18.9" width="16.07" height="0.47" transform="translate(-3.94 8.37) rotate(-15.03)" style="fill:#1ef962"/><rect x="24.28" y="19.72" width="0.47" height="5.1" transform="translate(-2.12 41.96) rotate(-78.74)" style="fill:#1ef962"/><rect x="25.91" y="25.29" width="3.13" height="0.47" transform="translate(-2.64 47.87) rotate(-79.47)" style="fill:#1ef962"/><rect x="30.64" y="22.92" width="0.47" height="5.5" transform="translate(-8.98 30.51) rotate(-46.66)" style="fill:#1ef962"/><rect x="33.33" y="22.43" width="0.47" height="4.84" transform="translate(-1.35 1.93) rotate(-3.23)" style="fill:#1ef962"/><rect x="33.61" y="18.91" width="4.75" height="0.47" transform="translate(-3.32 29.94) rotate(-43.37)" style="fill:#1ef962"/><rect x="25.66" y="9.03" width="0.47" height="7.73" transform="translate(-1.48 22.23) rotate(-45.29)" style="fill:#1ef962"/><rect x="18.32" y="12.61" width="5.35" height="0.47" transform="translate(0.93 27.11) rotate(-66.86)" style="fill:#1ef962"/><rect x="19.78" y="5.42" width="0.47" height="4.06" transform="translate(1.38 17.88) rotate(-49.65)" style="fill:#1ef962"/><rect x="15.09" y="9.71" width="6.2" height="0.47" transform="translate(-1.01 2.13) rotate(-6.5)" style="fill:#1ef962"/><rect x="26.52" y="2.8" width="0.47" height="8.39" transform="translate(4.47 23.37) rotate(-50.97)" style="fill:#1ef962"/><rect x="36.85" y="6.61" width="0.47" height="3.63" transform="translate(4.36 27.8) rotate(-43.43)" style="fill:#1ef962"/><rect x="36.71" y="13.44" width="4.15" height="0.47" transform="translate(21.24 50.87) rotate(-84.17)" style="fill:#1ef962"/><rect x="36.66" y="7.18" width="0.47" height="8.82" transform="translate(-1.78 11.71) rotate(-17.62)" style="fill:#1ef962"/><rect x="27.52" y="11.09" width="9.5" height="0.47" transform="translate(6.33 33.62) rotate(-60.02)" style="fill:#1ef962"/><rect x="29.63" y="13.24" width="9.17" height="0.47" transform="translate(-2.08 19.37) rotate(-30.72)" style="fill:#1ef962"/><rect x="33.74" y="12.99" width="0.47" height="7.13" transform="translate(15.38 49.47) rotate(-86.52)" style="fill:#1ef962"/><circle cx="17.66" cy="5.49" r="1.04" style="fill:#fff"/><path d="M17.66,6.74a1.25,1.25,0,1,1,1.25-1.25A1.24,1.24,0,0,1,17.66,6.74Zm0-2.08a.83.83,0,1,0,.83.83A.83.83,0,0,0,17.66,4.66Z" style="fill:#fc1d90"/><circle cx="22.55" cy="3.7" r="1.04" style="fill:#fff"/><path d="M22.55,4.94A1.25,1.25,0,1,1,23.8,3.7,1.25,1.25,0,0,1,22.55,4.94Zm0-2.07a.83.83,0,1,0,.83.83A.83.83,0,0,0,22.55,2.87Z" style="fill:#fc1d90"/><circle cx="22.38" cy="9.4" r="1.04" style="fill:#fff"/><path d="M22.38,10.65A1.25,1.25,0,1,1,23.63,9.4,1.25,1.25,0,0,1,22.38,10.65Zm0-2.08a.83.83,0,1,0,.83.83A.83.83,0,0,0,22.38,8.57Z" style="fill:#fc1d90"/><circle cx="29.72" cy="3.72" r="1.04" style="fill:#fff"/><path d="M29.72,5A1.25,1.25,0,1,1,31,3.72,1.23,1.23,0,0,1,29.72,5Zm0-2.07a.83.83,0,1,0,.83.83A.83.83,0,0,0,29.72,2.89Z" style="fill:#fc1d90"/><circle cx="30.93" cy="10.29" r="1.04" style="fill:#fff"/><path d="M30.93,11.54a1.25,1.25,0,1,1,1.25-1.25A1.24,1.24,0,0,1,30.93,11.54Zm0-2.08a.83.83,0,1,0,.83.83A.83.83,0,0,0,30.93,9.46Z" style="fill:#fc1d90"/><circle cx="35.22" cy="6.28" r="1.04" style="fill:#fff"/><path d="M35.22,7.53a1.25,1.25,0,1,1,1.25-1.25A1.25,1.25,0,0,1,35.22,7.53Zm0-2.08a.83.83,0,1,0,.83.83A.83.83,0,0,0,35.22,5.45Z" style="fill:#fc1d90"/><circle cx="39.09" cy="10.58" r="1.04" style="fill:#fff"/><path d="M39.09,11.82a1.25,1.25,0,1,1,1.24-1.24A1.25,1.25,0,0,1,39.09,11.82Zm0-2.07a.83.83,0,1,0,0,1.66.83.83,0,0,0,0-1.66Z" style="fill:#fc1d90"/><circle cx="38.57" cy="16.78" r="1.04" style="fill:#fff"/><path d="M38.57,18a1.25,1.25,0,1,1,1.24-1.24A1.24,1.24,0,0,1,38.57,18Zm0-2.07a.83.83,0,1,0,.83.83A.83.83,0,0,0,38.57,16Z" style="fill:#fc1d90"/><circle cx="29.38" cy="16.34" r="1.04" style="fill:#fff"/><path d="M29.38,17.59a1.25,1.25,0,1,1,1.24-1.25A1.24,1.24,0,0,1,29.38,17.59Zm0-2.08a.83.83,0,1,0,.83.83A.83.83,0,0,0,29.38,15.51Z" style="fill:#fc1d90"/><circle cx="20.97" cy="21.52" r="1.04" style="fill:#fff"/><path d="M21,22.77a1.25,1.25,0,1,1,1.25-1.25A1.25,1.25,0,0,1,21,22.77Zm0-2.08a.83.83,0,1,0,.83.83A.83.83,0,0,0,21,20.69Z" style="fill:#fc1d90"/><circle cx="28.05" cy="22.95" r="1.04" style="fill:#fff"/><path d="M28.05,24.19A1.25,1.25,0,1,1,29.29,23,1.24,1.24,0,0,1,28.05,24.19Zm0-2.07a.83.83,0,1,0,.82.83A.83.83,0,0,0,28.05,22.12Z" style="fill:#fc1d90"/><circle cx="33.43" cy="21.4" r="1.04" style="fill:#fff"/><path d="M33.43,22.64a1.25,1.25,0,1,1,1.25-1.24A1.24,1.24,0,0,1,33.43,22.64Zm0-2.07a.83.83,0,1,0,.83.83A.83.83,0,0,0,33.43,20.57Z" style="fill:#fc1d90"/><circle cx="33.7" cy="28.3" r="1.04" style="fill:#fff"/><path d="M33.7,29.55A1.25,1.25,0,1,1,35,28.3,1.25,1.25,0,0,1,33.7,29.55Zm0-2.08a.83.83,0,0,0,0,1.66.83.83,0,1,0,0-1.66Z" style="fill:#fc1d90"/><circle cx="26.93" cy="28.09" r="1.04" style="fill:#fff"/><path d="M26.93,29.33a1.25,1.25,0,1,1,1.25-1.24A1.25,1.25,0,0,1,26.93,29.33Zm0-2.07a.83.83,0,1,0,.83.83A.83.83,0,0,0,26.93,27.26Z" style="fill:#fc1d90"/><circle cx="14.07" cy="10.44" r="1.04" style="fill:#fff"/><path d="M14.07,11.68a1.25,1.25,0,1,1,1.25-1.24A1.24,1.24,0,0,1,14.07,11.68Zm0-2.07a.83.83,0,1,0,.83.83A.83.83,0,0,0,14.07,9.61Z" style="fill:#fc1d90"/><circle cx="19.51" cy="16.34" r="1.04" style="fill:#fff"/><path d="M19.51,17.59a1.25,1.25,0,1,1,1.24-1.25A1.25,1.25,0,0,1,19.51,17.59Zm0-2.08a.83.83,0,1,0,.83.83A.83.83,0,0,0,19.51,15.51Z" style="fill:#fc1d90"/></svg>