<svg xmlns="http://www.w3.org/2000/svg" viewBox="0 0 64 32"><g style="isolation:isolate"><g id="Calque_1" data-name="Calque 1"><path d="M36.41,7.91,27.94,22.05a2,2,0,0,0,.73,2.73,1.9,1.9,0,0,0,1,.27H46.59a2,2,0,0,0,2-2,2.12,2.12,0,0,0-.27-1L39.83,7.91a2,2,0,0,0-2.75-.67A2.14,2.14,0,0,0,36.41,7.91Z" style="fill:#efdf0b"/><path d="M25.57,7.91,17.1,22.05a2,2,0,0,0,.73,2.73,1.88,1.88,0,0,0,1,.27H35.75a2,2,0,0,0,1.71-3L29,7.91a2,2,0,0,0-2.75-.67A2,2,0,0,0,25.57,7.91Z" style="fill:#fc1d90;mix-blend-mode:multiply"/><path d="M27.1,18.27a1,1,0,0,1-1-1v-4a1,1,0,0,1,2,0v4A1,1,0,0,1,27.1,18.27Z" style="fill:#fff"/><path d="M27.11,22.27a1,1,0,0,1,0-2h0a1,1,0,0,1,0,2Z" style="fill:#fff"/><path d="M38,19.27a1,1,0,0,1-.32-1.94c.6-.21,2.32-1,2.32-2.06a2,2,0,0,0-3.89-.66,1,1,0,1,1-1.88-.67A4,4,0,0,1,42,15.28c0,2.64-3.31,3.82-3.68,3.94A.93.93,0,0,1,38,19.27Z"/><path d="M38.11,23.27a1,1,0,0,1,0-2h0a1,1,0,0,1,0,2Z"/><rect x="26" y="2" width="2" height="4" rx="1" style="fill:#20d368"/><rect x="36" y="6" width="2" height="4" rx="1" transform="translate(16.49 -23.82) rotate(45)" style="fill:#20d368"/><rect x="39" y="15" width="2" height="4" rx="1" transform="translate(57 -23) rotate(90)" style="fill:#20d368"/><rect x="36" y="23" width="2" height="4" rx="1" transform="translate(80.84 16.51) rotate(135)" style="fill:#20d368"/><rect x="26" y="28" width="2" height="4" rx="1" transform="translate(54 60) rotate(-180)" style="fill:#20d368"/><rect x="16" y="23" width="2" height="4" rx="1" transform="translate(11.34 54.7) rotate(-135)" style="fill:#20d368"/><rect x="13" y="15" width="2" height="4" rx="1" transform="translate(-3 31) rotate(-90)" style="fill:#20d368"/><rect x="16" y="6" width="2" height="4" rx="1" transform="translate(-0.68 14.36) rotate(-45)" style="fill:#20d368"/></g></g></svg>