<svg xmlns="http://www.w3.org/2000/svg" viewBox="0 0 64 32">
  <rect x="17.5" y="16" width="6" height="2" style="fill:#000">
    <animate attributeName="opacity"
      attributeType="CSS"
      values="1; 1; 0; 0; 1; 1"
      keyTimes="0; 0.14; 0.15; 0.85; 0.86; 1"
      dur="8s"
      repeatCount="indefinite"
    />
  </rect>
  <rect x="39" y="16" width="6" height="2" style="fill:#000">
    <animate attributeName="opacity"
      attributeType="CSS"
      values="1; 1; 0; 0; 1; 1"
      keyTimes="0; 0.14; 0.15; 0.85; 0.86; 1"
      dur="8s"
      repeatCount="indefinite"
    />
  </rect>
  <rect x="23.19" y="8.32" width="18" height="18" transform="translate(21.67 -17.69) rotate(45)" style="fill:#efdf0b">
    <animateTransform attributeName="transform"
      type="rotate"
      values="45 32 16; 45 32 16; 0 32 16; 0 32 16; 45 32 16; 45 32 16"
      keyTimes="0; 0.15; 0.2; 0.8; 0.85; 1"
      dur="8s"
      repeatCount="indefinite"
    />
    <animate attributeName="fill"
      attributeType="CSS"
      values="#efdf0b; #efdf0b; #fc1d90; #fc1d90; #efdf0b; #efdf0b"
      keyTimes="0; 0.15; 0.2; 0.8; 0.85; 1"
      dur="8s"
      repeatCount="indefinite"
    />
  </rect>
  <circle id="circleLeft" cx="25.83" cy="10.95" r="9" style="fill:#fc1d90">
    <animateTransform attributeName="transform"
      type="translate"
      values="-16 6; -16 6; 0 0; 0 0; -16 6; -16 6"
      keyTimes="0; 0.15; 0.2; 0.8; 0.85; 1"
      dur="8s"
      repeatCount="indefinite"
    />
  </circle>
  <circle cx="38.56" cy="10.95" r="9" style="fill:#fc1d90">
    <animateTransform attributeName="transform"
      type="translate"
      values="14 6; 14 6; 0 0; 0 0; 14 6; 14 6"
      keyTimes="0; 0.15; 0.2; 0.8; 0.85; 1"
      dur="8s"
      repeatCount="indefinite"
    />
  </circle>
  <polygon points="42.51 0.93 42.58 1.93 46.77 1.63 24.83 25.19 21.8 24.49 21.27 25.06 24.49 25.8 23.96 26.36 20.74 25.62 20.21 26.19 23.43 26.93 22.91 27.5 19.69 26.76 19.16 27.32 22.38 28.06 21.84 28.64 22.33 29.1 22.87 28.52 23.84 31.68 24.37 31.11 23.4 27.95 23.93 27.39 24.89 30.55 25.42 29.98 24.45 26.82 24.98 26.26 25.95 29.41 26.48 28.85 25.56 25.87 47.5 2.31 47.5 6.51 48.5 6.51 48.5 0.5 42.51 0.93" style="fill:#000">
    <animateTransform attributeName="transform"
      type="translate"
      values="-32 32; -32 32; 0 0; 0 0; 32 -32; 32 -32"
      keyTimes="0; 0.27; 0.3; 0.7; 0.73; 1"
      dur="8s"
      repeatCount="indefinite"
    />
  </polygon>
</svg>