<svg xmlns="http://www.w3.org/2000/svg" viewBox="0 0 90 146"><path d="M87.98 47.35c2.9-4 2-9.7-2-12.6-.1 0-.1-.1-.2-.1-4.1-2.8-9.7-1.8-12.7 2.2-4.4 5.9-9 10-14.3 12.4-4.5 1.9-9.4 2.9-14.3 3.1-4.7-.1-9.3-1.2-13.6-3.1-5.6-2.5-10.2-6.5-14.2-12.4-2.9-4.1-8.6-5.1-12.7-2.2-4.3 2.8-5.2 8.5-2.3 12.7 9 13 24.8 19.5 26.7 20.2-7.1 5.3-14.9 12.4-18.3 22-3.7 10-3.7 21 0 31 3.6 9.4 10.6 17.2 19.5 21.7 10 5 22.3 5 33.5 0 11.8-5.3 19.2-14.9 20.5-25.8 1.2-11.5-4.3-21.7-13.9-26.1-10-4.4-21.1-1.2-28.9 8.1-3.1 3.9-2.4 9.6 1.6 12.7 3.9 3.1 9.6 2.4 12.7-1.6 2.2-2.8 4.6-3.7 7.1-2.8 1.9.9 3.7 3.4 3.4 7.8s-4 8.4-10 11.2c-6.2 2.8-13 2.8-17.7.3-5-2.6-8.8-6.9-10.9-12.1-2.2-5.8-2.2-12.2 0-18 2.2-5.9 7.4-11.2 17.1-17.1 4-2.5 8.4-5 12.4-7.1-.2.4 22.1-11.7 31.5-24.4ZM44.18.75c-11.7 0-21.1 9.4-21.1 21.1s9.4 21.1 21.1 21.1 21.1-9.4 21.1-21.1S55.78.75 44.18.75Zm0 27.3c-3.4 0-6.2-2.8-6.2-6.3s2.8-6.2 6.3-6.2 6.2 2.8 6.2 6.2c-.1 3.5-2.8 6.3-6.3 6.3Z"/></svg>