<svg xmlns="http://www.w3.org/2000/svg" viewBox="0 0 337.62 310.97">
  <path fill="#e34329" d="M168.8 311L231 119.65H106.69L168.8 311z"></path>
  <path fill="#f6a22d" d="M19.57 119.65L.63 177.77a12.9 12.9 0 004.66 14.4L168.8 311 19.57 119.65z"></path>
  <path fill="#e34329" d="M19.57 119.65h87.12L69.2 4.42a6.47 6.47 0 00-12.27 0L19.57 119.65z"></path>
  <path fill="#f6a22d" d="M318.12 119.65L337 177.77a12.87 12.87 0 01-4.66 14.4L168.8 311l149.32-191.35z"></path>
  <path fill="#e34329" d="M318.12 119.65H231L268.43 4.42a6.47 6.47 0 0112.27 0l37.42 115.23z"></path>
  <path fill="#ed6e2f" d="M168.8 310.97L231 119.64h87.12L168.8 310.97z"></path>
  <path fill="#ed6e2f" d="M168.8 310.97L19.57 119.64h87.12l62.11 191.33z"></path>
</svg>
