<svg xmlns="http://www.w3.org/2000/svg" viewBox="0 0 21 23"><defs><linearGradient id="a" x1="10.19" y1="-3.04" x2="10.19" y2="22.46" gradientTransform="matrix(1 0 0 -1 0 25.91)" gradientUnits="userSpaceOnUse"><stop offset="0" stop-color="#fff100"/><stop offset="1" stop-color="#f05a28"/></linearGradient></defs><path d="M20.36 10.71c-.04-.35-.08-.78-.23-1.25-.12-.47-.31-.98-.59-1.53s-.63-1.1-1.06-1.64c-.16-.2-.35-.43-.59-.63.31-1.25-.39-2.31-.39-2.31-1.17-.08-1.96.35-2.23.59-.04 0-.08-.04-.16-.08-.2-.08-.39-.16-.63-.23-.23-.08-.43-.12-.67-.2-.23-.04-.47-.08-.67-.12h-.12c-.51-1.64-2-2.35-2-2.35-1.64 1.06-1.96 2.51-1.96 2.51v.08c-.08.04-.2.04-.27.08-.12.04-.23.08-.39.12-.12.04-.23.08-.39.16-.23.12-.51.23-.74.35s-.47.27-.7.43c-.04 0-.04-.04-.04-.04-2.31-.86-4.35.2-4.35.2-.2 2.43.9 3.99 1.14 4.27-.04.16-.12.31-.16.47-.16.55-.31 1.14-.39 1.72 0 .08-.04.16-.04.23C.62 12.6-.01 14.75-.01 14.75c1.76 2.04 3.84 2.15 3.84 2.15.27.47.55.9.9 1.33.16.16.31.35.43.51-.63 1.84.08 3.37.08 3.37 1.96.08 3.25-.86 3.52-1.1.2.08.39.12.59.2.59.16 1.21.23 1.84.27h.74c.94 1.33 2.55 1.53 2.55 1.53 1.17-1.21 1.21-2.43 1.21-2.7v-.08c.23-.16.47-.35.7-.55.47-.43.86-.9 1.21-1.41.04-.04.08-.08.08-.16 1.33.08 2.23-.82 2.23-.82-.23-1.37-1.02-2.04-1.17-2.15h-.04V13.5c-.04-.16-.04-.31-.08-.43-.16-.59-.35-1.14-.67-1.64-.31-.51-.67-.94-1.1-1.33-.43-.39-.9-.67-1.41-.9-.51-.23-1.02-.35-1.57-.43-.27-.04-.51-.04-.78-.04h-.39c-.12 0-.27.04-.39.04-.51.08-1.02.27-1.45.55-.43.27-.82.59-1.14.94-.31.35-.55.78-.7 1.21-.16.43-.23.86-.27 1.29v.63c.04.2.08.43.12.63.12.39.31.74.51 1.06.23.31.51.55.78.74.27.2.59.35.9.43.31.08.59.12.9.12h.51s.08 0 .12-.04c.08 0 .12-.04.2-.04.12-.04.23-.08.35-.16.12-.04.2-.12.31-.2.04 0 .04-.04.08-.08.12-.08.12-.23.04-.31-.08-.08-.2-.12-.27-.04-.04 0-.04.04-.08.04-.08.04-.16.08-.27.12-.08.04-.2.04-.27.08h-.63a2.22 2.22 0 0 1-.67-.2c-.23-.08-.43-.23-.63-.39s-.35-.39-.47-.59c-.12-.2-.23-.47-.27-.74-.04-.12-.04-.27-.04-.39v-.2c0-.08 0-.16.04-.23.12-.59.39-1.14.86-1.61.12-.12.23-.2.35-.31.12-.08.27-.16.39-.23.16-.08.31-.12.43-.16.16-.04.31-.08.47-.08h.47c.16 0 .35.04.51.08.35.08.67.2.98.39.63.35 1.14.9 1.49 1.53.16.31.27.67.35 1.02 0 .08.04.2.04.27v.63c0 .12 0 .2-.04.31 0 .08-.04.2-.04.27s-.04.2-.08.27c-.04.2-.12.39-.2.55-.16.35-.35.7-.59 1.06-.47.63-1.1 1.17-1.84 1.49-.35.16-.74.27-1.14.35-.2.04-.39.04-.59.08H11.25a7.09 7.09 0 0 1-1.25-.23c-.39-.12-.82-.27-1.17-.47-.74-.39-1.41-.94-1.96-1.61-.27-.31-.51-.67-.67-1.06-.2-.39-.35-.78-.47-1.17-.12-.39-.2-.82-.2-1.21v-.74c0-.2.04-.43.04-.63.04-.2.08-.43.12-.63.04-.2.08-.43.16-.63.12-.39.27-.78.43-1.17.35-.74.78-1.41 1.33-1.92.12-.12.27-.27.43-.39.16-.12.31-.23.47-.31.16-.12.31-.2.47-.27.08-.04.16-.08.23-.12.04 0 .08-.04.12-.04s.08-.04.12-.04c.16-.08.35-.12.51-.2.04 0 .08-.04.12-.04s.08-.04.12-.04c.08-.04.2-.04.27-.08.04 0 .08-.04.16-.04.04 0 .08 0 .16-.04.04 0 .08 0 .16-.04h.16s.08 0 .16-.04c.04 0 .12 0 .16-.04h.67s.04 0 0 0h.7c.35 0 .7.04 1.06.12.67.12 1.29.35 1.88.63.59.27 1.1.63 1.53 1.02l.08.08.08.08c.04.04.12.08.16.16.04.08.12.08.16.16.04.08.12.12.16.16.2.2.35.39.51.63.31.39.59.82.78 1.21 0 .04.04.04.04.08s.04.04.04.08c.04.04.04.08.08.16.04.04.04.08.08.16.04.04.04.08.08.16.08.2.16.35.2.51.08.27.16.51.2.7.04.08.12.16.2.12.08 0 .16-.08.16-.16.16-.47.16-.74.12-1.02Z" fill="url(#a)"/></svg>