<svg version="1.1" xmlns="http://www.w3.org/2000/svg" x="0" y="0" viewBox="0 0 255 255" xml:space="preserve"><path fill="#fff" d="M254 132.2c-.6-14.8-5.9-27.3-15.1-34.9.6-3.4.8-6.9.8-10.3 0-6.2-.9-12.5-2.8-18.4V22.8c0-2-.8-3.9-2.2-5.3-1.5-1.2-3.4-1.9-5.3-1.7l-5.9.6c-18.4 1.7-37.7 2.8-56.9 3.6-12.6-5-26.1-7.5-39.7-7.6-13.6 0-27 2.5-39.6 7.5-19.5-.8-38.5-2-57.2-3.6l-5.9-.6c-1.9-.2-3.8.4-5.3 1.7-1.4 1.4-2.2 3.3-2.2 5.3v45.8c-1.7 6-2.7 12.2-2.8 18.4 0 3.5.3 6.9 1.1 10.3-9.1 7.7-14.6 20.3-15 35-1.1 37.1 22.9 71.4 24 73.1 1.6 2 4.1 3.1 6.7 2.8 2.7-.4 4.9-2.4 5.6-5 1.3-3.5 2.8-7 4.5-10.3C79 240.3 148.4 248 196 209.8c6.3-5 12-10.7 17-17 1.8 3.3 3.3 6.8 4.5 10.3.8 2.6 2.9 4.5 5.6 5 2.6.3 5.1-.8 6.7-2.8 1-1.6 25-35.9 24.2-73.1"/><path fill="#362759" d="M29.7 201.2S6 167.7 6.8 132.5C7.9 97.3 40.3 85.3 55 111.6c19 34.3-17.3 63.3-25.3 89.6"/><path fill="#362759" d="M224.2 201.2s23.7-33.5 22.9-68.7-33.5-47.2-48.3-20.9c-19 34.3 17.5 63.3 25.4 89.6"/><path d="M223.9 123.3c0 53.6-43.2 97.1-96.8 97.1-53.6.2-97.2-43.2-97.4-96.8s43.2-97.2 96.8-97.4 97.2 43.2 97.4 96.8v.3" fill="#503c83"/><path fill="#362759" d="M127 216.5c-51.6 0-93.5-41.9-93.5-93.2S75.4 30.1 127 30.1c51.5.5 92.8 42.7 92.2 94.2-.5 50.7-41.4 91.7-92.2 92.2zM219.7 77H230V22.8l-5.9.6c-19.5 1.7-39.1 2.8-58.9 3.6-12.2-4.9-25.1-7.5-38.3-7.5-13.2.1-26.3 2.6-38.5 7.5-19.8-.8-39.3-2-58.9-3.6l-5.9-.6V77h10.3c-25.6 51.3-4.7 113.7 46.7 139.2 14.4 7.2 30.2 10.9 46.3 10.9 57.2 0 103.5-46.6 103.5-103.8.2-16.1-3.6-31.9-10.7-46.3z"/><path fill="#fff" d="M76.5 41.8c-24.9-.1-45.1 20-45.2 44.9s20 45.1 44.9 45.2c24.9.1 45.1-20 45.2-44.9.1-24.8-20-45.1-44.9-45.2"/><path fill="#fff" d="M177.3 41.8c-24.9-.1-45.1 20-45.2 44.9s20 45.1 44.9 45.2c24.9.1 45.1-20 45.2-44.9 0-24.8-20-45.1-44.9-45.2"/><path fill="#e36539" d="M127 110.2c-4.6 9.5-11.6 17.6-20.4 23.4l20.4 20.1 20.1-20.1c-8.7-5.8-15.7-13.9-20.1-23.4"/><path fill="#e36539" d="M82.7 212.6c-.1-1.8-1.6-3.2-3.4-3.4h-2.2c-1.8.1-3.2 1.5-3.4 3.4v23.7c.1 1.8 1.6 3.2 3.4 3.4h2.2c1.8-.1 3.2-1.5 3.4-3.4v-23.7"/><path fill="#e36539" d="M50.6 236.3c0 1.8 1.5 3.3 3.3 3.4h2c1.8 0 3.3-1.5 3.4-3.4v-23.7c0-1.8-1.5-3.3-3.4-3.4H54c-1.8 0-3.3 1.5-3.3 3.4l-.1 23.7"/><path fill="#e36539" d="M67.6 209.3h-2.2c-1.8.1-3.2 1.5-3.4 3.4v23.7c.1 1.8 1.6 3.2 3.4 3.4h2.2c1.8 0 3.3-1.5 3.4-3.4v-23.7c-.1-1.9-1.6-3.4-3.4-3.4"/><path fill="#000105" d="M75.7 92.2c-4.1-.1-7.3-3.4-7.3-7.5s3.4-7.3 7.5-7.3c4 .1 7.2 3.3 7.3 7.3.1 4.1-3.2 7.5-7.4 7.5h-.1zm3.9-24c-10.4.1-18.8 8.6-18.7 19s8.6 18.8 19 18.7c10.3-.1 18.6-8.4 18.7-18.7 0-10.5-8.5-19-19-19z"/><path fill="#000105" d="M180.3 92.2c-4.1.1-7.5-3-7.7-7.1s3-7.5 7.1-7.7h.5c4.1.2 7.3 3.6 7.1 7.7 0 3.9-3.2 7-7 7.1zm-3.9-24c-10.4.1-18.8 8.6-18.7 19s8.6 18.8 19 18.7c10.3-.1 18.6-8.4 18.7-18.7 0-10.5-8.5-19-19-19z"/><path d="M177.3 132c-24.9.1-45.1-20-45.2-44.9s20-45.1 44.9-45.2c24.9-.1 45.1 20 45.2 44.9v.2c0 24.8-20.1 44.9-44.9 45zm-100.8 0c-24.9.1-45.1-20-45.2-44.9s20-45.1 44.9-45.2c24.9-.1 45.1 20 45.2 44.9v.2c.1 24.8-20 44.9-44.9 45zM177.3 31.5c-21.7-.1-41.4 12.6-50.2 32.4C114.2 36 81.3 23.8 53.4 36.6s-40.1 45.8-27.3 73.6 45.8 40.1 73.6 27.3c12.1-5.5 21.8-15.2 27.3-27.3 12.8 27.8 45.8 39.9 73.6 27.1s39.9-45.8 27.1-73.6c-9.1-19.7-28.8-32.2-50.4-32.2z" fill="#a084b0"/><path fill="#fff" d="M82.7 236.3c-.1 1.8-1.6 3.2-3.4 3.4h-2.2c-1.8-.1-3.2-1.6-3.4-3.4v-23.7c.1-1.8 1.6-3.2 3.4-3.4h2.2c1.8.1 3.2 1.6 3.4 3.4v23.7zm-15.1 3.4h-2.2c-1.8-.1-3.2-1.6-3.4-3.4v-23.7c.1-1.8 1.6-3.2 3.4-3.4h2.2c1.8 0 3.3 1.5 3.4 3.4v23.7c-.1 1.9-1.6 3.4-3.4 3.4zm-11.7 0H54c-1.8 0-3.3-1.5-3.3-3.4v-23.7c0-1.8 1.5-3.3 3.3-3.4h1.9c1.8 0 3.3 1.5 3.4 3.4v23.7c-.1 1.9-1.6 3.4-3.4 3.4zm23.4-33.2h-2.2c-1.9.1-3.6 1-4.8 2.5-1.1-1.5-2.9-2.4-4.7-2.5h-2.2c-1.9.1-3.6 1.1-4.8 2.5-1.1-1.5-2.9-2.4-4.7-2.5H54c-3.4 0-6.1 2.8-6.1 6.1v23.7c0 3.4 2.8 6.1 6.1 6.1h1.9c1.9-.1 3.6-1 4.7-2.5 1.2 1.5 2.9 2.4 4.8 2.5h2.2c1.9-.1 3.6-1 4.7-2.5 1.1 1.5 2.9 2.4 4.8 2.5h2.2c3.4 0 6.1-2.8 6.1-6.1v-23.8c0-3.3-2.7-6-6.1-6z"/><path fill="#e36539" d="M203.5 212.6c-.2-1.9-1.7-3.3-3.6-3.4h-2c-1.8 0-3.3 1.5-3.4 3.4v23.7c0 1.8 1.5 3.3 3.4 3.4h2c1.9 0 3.5-1.5 3.6-3.4v-23.7"/><path fill="#e36539" d="M171.1 236.3c.1 1.8 1.6 3.2 3.4 3.4h2.2c1.8 0 3.3-1.5 3.4-3.4v-23.7c0-1.8-1.5-3.3-3.4-3.4h-2.2c-1.8.1-3.2 1.5-3.4 3.4v23.7"/><path fill="#e36539" d="M188.4 209.3h-2.2c-1.8 0-3.3 1.5-3.4 3.4v23.7c0 1.8 1.5 3.3 3.4 3.4h2.2c1.8-.1 3.2-1.5 3.4-3.4v-23.7c-.1-1.9-1.6-3.3-3.4-3.4"/><path fill="#fff" d="M203.5 236.3c-.2 1.9-1.7 3.3-3.6 3.4h-2c-1.8 0-3.3-1.5-3.4-3.4v-23.7c0-1.8 1.5-3.3 3.4-3.4h2c1.9 0 3.5 1.5 3.6 3.4v23.7zm-15.1 3.4h-2.2c-1.8 0-3.3-1.5-3.4-3.4v-23.7c0-1.8 1.5-3.3 3.4-3.4h2.2c1.8.1 3.2 1.6 3.4 3.4v23.7c-.1 1.8-1.6 3.3-3.4 3.4zm-11.7 0h-2.2c-1.8-.1-3.2-1.6-3.4-3.4v-23.7c.1-1.8 1.6-3.2 3.4-3.4h2.2c1.8 0 3.3 1.5 3.4 3.4v23.7c-.1 1.9-1.5 3.4-3.4 3.4zm23.2-33.2h-2c-1.9.1-3.6 1-4.8 2.5-1.1-1.5-2.9-2.4-4.7-2.5h-2.2c-1.9.1-3.6 1-4.8 2.5-1.1-1.5-2.9-2.4-4.7-2.5h-2.2c-3.4 0-6.1 2.8-6.1 6.1v23.7c0 3.4 2.8 6.1 6.1 6.1h2.2c1.9-.1 3.6-1 4.7-2.5 1.1 1.5 2.9 2.4 4.8 2.5h2.2c1.9-.1 3.6-1 4.7-2.5 1.1 1.5 2.9 2.4 4.8 2.5h2c3.5.1 6.3-2.6 6.4-6.1v-23.8c-.1-3.3-2.9-6.1-6.4-6z"/></svg>