<?xml version="1.0" encoding="UTF-8"?><svg id="a" xmlns="http://www.w3.org/2000/svg" viewBox="0 0 313 301"><path d="M228.66,.16h-.75c-29.84,0-56.23,15.79-71.41,39.09C141.32,15.94,114.93,.16,85.09,.16h-.75C37.74,.6,.18,38.49,.16,85.11c0,27.81,12.18,67.27,35.93,99.74,45.25,61.87,120.42,116,120.42,116,0,0,75.17-54.12,120.41-116,23.76-32.47,35.93-71.93,35.93-99.74-.03-46.61-37.58-84.5-84.18-84.95Z" style="fill:#eedd0b; opacity:.8;"/><path d="M217.07,189.95c-6.96-.03-13.18-4.32-15.67-10.82h-17.84c-2.41-.01-4.54-1.56-5.31-3.84l-5.48-16.51-17.34,60.59c-.69,2.4-2.89,4.05-5.38,4.05h-.35c-2.61-.13-4.78-2.06-5.2-4.64l-17.87-107.48-13.06,63.6c-.62,2.49-2.85,4.23-5.41,4.23h-25.13c-3.08,.13-5.69-2.26-5.82-5.35-.13-3.08,2.26-5.69,5.35-5.82,.16,0,.32,0,.47,0h20.73l18.5-85.51c.72-3.01,3.75-4.87,6.77-4.14,2.22,.53,3.89,2.35,4.23,4.6l18.25,109.64,15.54-54.21c.66-2.34,2.79-3.97,5.23-4h.11c2.41,0,4.55,1.55,5.3,3.84l9.91,29.81h13.58c2.89-8.79,12.37-13.57,21.16-10.68,8.79,2.89,13.57,12.37,10.68,21.16-2.26,6.87-8.68,11.52-15.92,11.52l-.03-.04Z" style="fill:#fff;"/></svg>