<svg xmlns="http://www.w3.org/2000/svg" viewBox="0 0 526 436" xml:space="preserve"><path fill="#eedd0b" d="M366.8 435.6c-1.2 0-2.3-.3-3.3-.9L169.9 325.3c-3.3-1.9-4.4-6-2.6-9.3L319.7 46.5c1.9-3.3 6-4.4 9.3-2.6l193.5 109.4c3.3 1.9 4.4 6 2.6 9.3L372.7 432.1c-.9 1.6-2.4 2.7-4.1 3.2-.6.2-1.2.3-1.8.3z" opacity=".4"/><path fill="#fff" d="m313.604 58.446.788-1.392 204.48 115.617-.787 1.393z"/><path fill="#fff" d="m299.557 83.18.787-1.394 204.48 115.618-.787 1.393z"/><path fill="#fff" d="m285.596 107.961.788-1.393 204.48 115.618-.787 1.393z"/><path fill="#fff" d="m271.548 132.694.788-1.393 204.48 115.618-.787 1.393z"/><path fill="#fff" d="m257.588 157.476.787-1.393 204.48 115.618-.787 1.393z"/><path fill="#fff" d="m243.627 182.258.788-1.393 204.48 115.618-.787 1.393z"/><path fill="#fff" d="m229.58 206.99.787-1.392 204.48 115.618-.787 1.393z"/><path fill="#fff" d="m215.619 231.773.787-1.393 204.48 115.618-.787 1.393z"/><path fill="#fff" d="m201.62 256.419.788-1.393 204.48 115.618-.787 1.393z"/><path fill="#fff" d="m187.66 281.2.787-1.392 204.48 115.618-.787 1.393z"/><path fill="#fff" d="m173.612 305.934.788-1.393 204.48 115.618-.787 1.392z"/><path fill="#eedd0b" d="M348.8 394.6c-1.2 0-2.3-.3-3.3-.9L151.9 284.3c-3.3-1.9-4.4-6-2.6-9.3L301.7 5.5c1.9-3.3 6-4.4 9.3-2.6l193.5 109.4c3.3 1.9 4.4 6 2.6 9.3L354.7 391.1c-.9 1.6-2.4 2.7-4.1 3.2-.6.2-1.2.3-1.8.3z" opacity=".4"/><path fill="#fff" d="m295.604 17.444.787-1.393 204.48 115.618-.787 1.393z"/><path fill="#fff" d="m281.556 42.177.788-1.393 204.48 115.618-.787 1.393z"/><path fill="#fff" d="m267.596 66.96.787-1.394 204.48 115.618-.787 1.393z"/><path fill="#fff" d="m253.548 91.692.787-1.393 204.48 115.618-.787 1.393z"/><path fill="#fff" d="m239.587 116.474.788-1.393L444.855 230.7l-.787 1.393z"/><path fill="#fff" d="m225.627 141.256.787-1.393 204.48 115.618-.787 1.393z"/><path fill="#fff" d="m211.579 165.989.787-1.393 204.481 115.618-.788 1.393z"/><path fill="#fff" d="m197.618 190.771.788-1.393 204.48 115.618-.787 1.393z"/><path fill="#fff" d="m183.62 215.417.787-1.393 204.48 115.618-.787 1.392z"/><path fill="#fff" d="m169.66 240.199.787-1.393 204.48 115.618-.787 1.393z"/><path fill="#fff" d="m155.612 264.932.787-1.393 204.48 115.618-.787 1.392z"/><path fill="#eedd0b" d="M329.5.4H20.2v430h309.2c2.3 0 4.2-1.9 4.2-4.2V4.6c.1-2.3-1.8-4.2-4.1-4.2zM37.7 418.5c-4.2 0-7.7-3.4-7.7-7.7 0-4.2 3.4-7.7 7.7-7.7 4.2 0 7.7 3.4 7.7 7.7 0 4.3-3.5 7.7-7.7 7.7zm0-39.1c-4.2 0-7.7-3.4-7.7-7.7 0-4.2 3.4-7.7 7.7-7.7 4.2 0 7.7 3.4 7.7 7.7 0 4.3-3.5 7.7-7.7 7.7zm0-39.1c-4.2 0-7.7-3.4-7.7-7.7 0-4.2 3.4-7.7 7.7-7.7 4.2 0 7.7 3.4 7.7 7.7 0 4.3-3.5 7.7-7.7 7.7zm0-39.1c-4.2 0-7.7-3.4-7.7-7.7 0-4.2 3.4-7.7 7.7-7.7 4.2 0 7.7 3.4 7.7 7.7 0 4.3-3.5 7.7-7.7 7.7zm0-39c-4.2 0-7.7-3.4-7.7-7.7 0-4.2 3.4-7.7 7.7-7.7 4.2 0 7.7 3.4 7.7 7.7 0 4.2-3.5 7.7-7.7 7.7zm0-39.1c-4.2 0-7.7-3.4-7.7-7.7 0-4.2 3.4-7.7 7.7-7.7 4.2 0 7.7 3.4 7.7 7.7 0 4.2-3.5 7.7-7.7 7.7zm0-39.1c-4.2 0-7.7-3.4-7.7-7.7 0-4.2 3.4-7.7 7.7-7.7 4.2 0 7.7 3.4 7.7 7.7 0 4.2-3.5 7.7-7.7 7.7zm0-39.1c-4.2 0-7.7-3.4-7.7-7.7 0-4.2 3.4-7.7 7.7-7.7 4.2 0 7.7 3.4 7.7 7.7 0 4.2-3.5 7.7-7.7 7.7zm0-39.1c-4.2 0-7.7-3.4-7.7-7.7 0-4.2 3.4-7.7 7.7-7.7 4.2 0 7.7 3.4 7.7 7.7 0 4.3-3.5 7.7-7.7 7.7zm0-39.1c-4.2 0-7.7-3.4-7.7-7.7 0-4.2 3.4-7.7 7.7-7.7 4.2 0 7.7 3.4 7.7 7.7 0 4.3-3.5 7.7-7.7 7.7zm0-39.1c-4.2 0-7.7-3.4-7.7-7.7s3.4-7.7 7.7-7.7c4.2 0 7.7 3.4 7.7 7.7 0 4.3-3.5 7.7-7.7 7.7z" opacity=".8"/><path fill="#eedd0b" d="M20.2 24.1c-2 0-20.2-.1-20.2-3.5s18.2-3.5 20.2-3.5v1.4c-10.7 0-17.6 1.2-18.8 2.1 1.1.9 8.1 2.1 18.8 2.1 10.7 0 17.6-1.2 18.8-2.1-.5-.4-2.8-1.2-8.7-1.7l.1-1.4c10.1.9 10.1 2.5 10.1 3.1 0 3.4-18.2 3.5-20.3 3.5z" opacity=".8"/><path fill="#eedd0b" d="M20.2 62.5c-2 0-20.2-.1-20.2-3.5s18.2-3.5 20.2-3.5v1.4C9.5 56.9 2.6 58.1 1.5 59c1.1.9 8.1 2.1 18.8 2.1 10.7 0 17.6-1.2 18.8-2.1-.5-.4-2.8-1.2-8.7-1.7l.1-1.4c10.1.9 10.1 2.5 10.1 3.1-.1 3.4-18.3 3.5-20.4 3.5z" opacity=".8"/><path fill="#eedd0b" d="M20.2 101.6c-2.1 0-20.2-.1-20.2-3.5s18.2-3.5 20.2-3.5V96C9.5 96 2.6 97.2 1.5 98.1c1.1.9 8.1 2.1 18.8 2.1 10.7 0 17.6-1.2 18.8-2.1-.5-.4-2.8-1.2-8.7-1.7l.1-1.4c10.1.9 10.1 2.5 10.1 3.1-.1 3.4-18.3 3.5-20.4 3.5z" opacity=".8"/><path fill="#eedd0b" d="M20.2 140.7c-2.1 0-20.2-.1-20.2-3.5s18.2-3.5 20.2-3.5v1.4c-10.7 0-17.6 1.2-18.8 2.1 1.1.9 8.1 2.1 18.8 2.1 10.7 0 17.6-1.2 18.8-2.1-.5-.4-2.8-1.2-8.7-1.7l.1-1.4c10.1.9 10.1 2.5 10.1 3.1 0 3.4-18.2 3.5-20.3 3.5z" opacity=".8"/><path fill="#eedd0b" d="M20.2 179.8c-2.1 0-20.2-.1-20.2-3.5s18.2-3.5 20.2-3.5v1.4c-10.7 0-17.6 1.2-18.8 2.1 1.1.9 8.1 2.1 18.8 2.1 10.7 0 17.6-1.2 18.8-2.1-.5-.4-2.8-1.2-8.7-1.7l.1-1.4c10.1.9 10.1 2.5 10.1 3.1 0 3.4-18.2 3.5-20.3 3.5z" opacity=".8"/><path fill="#eedd0b" d="M20.2 218.9c-2.1 0-20.2-.1-20.2-3.5s18.2-3.5 20.2-3.5v1.4c-10.7 0-17.6 1.2-18.8 2.1 1.1.9 8.1 2.1 18.8 2.1 10.7 0 17.6-1.2 18.8-2.1-.5-.4-2.8-1.2-8.7-1.7l.1-1.4c10.1.9 10.1 2.5 10.1 3.1 0 3.4-18.2 3.5-20.3 3.5z" opacity=".8"/><path fill="#eedd0b" d="M20.2 258c-2.1 0-20.2-.1-20.2-3.5s18.2-3.5 20.2-3.5v1.4c-10.7 0-17.6 1.2-18.8 2.1 1.1.9 8.1 2.1 18.8 2.1 10.7 0 17.6-1.2 18.8-2.1-.5-.4-2.8-1.2-8.7-1.7l.1-1.4c10.1.9 10.1 2.5 10.1 3.1 0 3.4-18.2 3.5-20.3 3.5z" opacity=".8"/><path fill="#eedd0b" d="M20.2 297.1c-2.1 0-20.2-.1-20.2-3.5s18.2-3.5 20.2-3.5v1.4c-10.7 0-17.6 1.2-18.8 2.1 1.1.9 8.1 2.1 18.8 2.1 10.7 0 17.6-1.2 18.8-2.1-.5-.4-2.8-1.2-8.7-1.7l.1-1.4c10.1.9 10.1 2.5 10.1 3.1 0 3.4-18.2 3.5-20.3 3.5z" opacity=".8"/><path fill="#eedd0b" d="M20.2 336.1c-2.1 0-20.2-.1-20.2-3.5s18.2-3.5 20.2-3.5v1.4c-10.7 0-17.6 1.2-18.8 2.1 1.1.9 8.1 2.1 18.8 2.1 10.7 0 17.6-1.2 18.8-2.1-.5-.4-2.8-1.2-8.7-1.7l.1-1.4c10.1.9 10.1 2.5 10.1 3.1 0 3.4-18.2 3.5-20.3 3.5z" opacity=".8"/><path fill="#eedd0b" d="M20.2 375.2c-2.1 0-20.2-.1-20.2-3.5s18.2-3.5 20.2-3.5v1.4c-10.7 0-17.6 1.2-18.8 2.1 1.1.9 8.1 2.1 18.8 2.1 10.7 0 17.6-1.2 18.8-2.1-.5-.4-2.8-1.2-8.7-1.7l.1-1.4c10.1.9 10.1 2.5 10.1 3.1 0 3.4-18.2 3.5-20.3 3.5z" opacity=".8"/><path fill="#eedd0b" d="M20.2 414.3c-2.1 0-20.2-.1-20.2-3.5s18.2-3.5 20.2-3.5v1.4c-10.7 0-17.6 1.2-18.8 2.1 1.1.9 8.1 2.1 18.8 2.1 10.7 0 17.6-1.2 18.8-2.1-.5-.4-2.8-1.2-8.7-1.7l.1-1.4c10.1.9 10.1 2.5 10.1 3.1 0 3.4-18.2 3.5-20.3 3.5z" opacity=".8"/><path fill="#fff" d="M266.3 164.8H112.7c-2.5 0-4.5-2-4.5-4.5v-60c0-2.5 2-4.5 4.5-4.5h153.6c2.5 0 4.5 2 4.5 4.5v60c0 2.4-2 4.5-4.5 4.5z"/><path fill="#eedd0b" d="M209.1 116.3H170c-1.9 0-3.5-1.6-3.5-3.5s1.6-3.5 3.5-3.5h39.1c1.9 0 3.5 1.6 3.5 3.5s-1.6 3.5-3.5 3.5z" opacity=".4"/><path fill="#eedd0b" d="M230.7 133.7h-82.4c-1.9 0-3.5-1.6-3.5-3.5s1.6-3.5 3.5-3.5h82.4c1.9 0 3.5 1.6 3.5 3.5s-1.6 3.5-3.5 3.5z" opacity=".4"/><path fill="#eedd0b" d="M230.7 151.2h-82.4c-1.9 0-3.5-1.6-3.5-3.5s1.6-3.5 3.5-3.5h82.4c1.9 0 3.5 1.6 3.5 3.5s-1.6 3.5-3.5 3.5z" opacity=".4"/></svg>