<svg xmlns="http://www.w3.org/2000/svg" viewBox="0 0 671 429"><path fill="#eedd0b" opacity=".4" d="m.15 155.21 21.53-.13 18.06 5.33 30.23-14.9 26.6.77 13.14 7.33 31.76-9.25 5.84 8.84 15.06 3.82 24.77-13.35 15.24-2.19 11.34-15.2 10.33 2.49 5.28-4.03L237 94.48l45.2-5.74 24.04 11.58 49.2-33.73 5.86 1.31 7.98 16.95 5.44 1.1 6.39-6.65 17.16-.74 7.37 10.14 3.58 1.6 13.16-4.1 15.35 1.68 21.18-34.16 7.29-8.47 6.71-.4 19.42 14.12 5.12.67 30.16-61.59 7.81 1.75 10.76 41.78 25.55 2.47 7.69-19.77 6.59-.45 6.59 15.3 9.72 2.34 10.57-23.28L630.45.41l4.96 2.35 35.1 407.14-482.96 18.98L.15 155.21z"/><path fill="#eedd0b" opacity=".4" d="m74.54 265 22.53-.65 11.81 4.31 31.07-6.91 10.12 8.53 13.93-.1 25.05-8.34 15.29-2.74 10.11-9.73 13.28.59 13.61-22.45 46.42-4.69 22.53 8.19 52.37-25 15.55 14.24 10.11-6.11 18.94.29 7.56 7.8 14.92-2.78 15.03-.07 24.26-23.43 9.32-7.24 27.3 10.86 32.21-40.84 9.72-.35 10.11 27.96 26.58 1.81 8.01-13.88 7.11.64 7.01 9.95 9.67.86 10.72-16.49 17-11.84 5.85 4.92L670 410.7l-482.45 18.18L74.54 265z"/><path fill="#eedd0b" opacity=".4" d="M152.81 378.5h4.72l27.68-5.59 16.5-1.2 12.35-6.55 11.37 2.07 11.13-11.75 49.54-5.14 25.76 3.46 54.62-14.58 11.19 7.68 4.35.07 7.46-3.38 19.5-.9 6.39 3.8 17.88-1.81 16.37.26 22.79-12.96 9.81-4.04 30.31 5.44 38.29-26.01 2.95.51 9.6 15.53 29.51 1.23 9.54-9.18 3.55-.64 7.81 7.1 10.24 1 12.14-8.66 21.09-8.02 4.68 2.8 8.92 99.96-2.26 2.87-481.04 17.01-34.74-50.38z"/></svg>