<svg xmlns="http://www.w3.org/2000/svg" viewBox="0 0 611 607" xml:space="preserve"><path fill="#eedd0b" opacity=".4" d="M611 224.8v299.7L511.1 607H0V292.8l149.1-68z"/><path fill="#eedd0b" opacity=".4" d="M611 224.8v1.2l-35.9 24-64 42.8H0l149.1-68z"/><path fill="#eedd0b" opacity=".4" d="M611 224.8v299.7L511.1 607l.7-314.9 63.3-42.1 35.3-25.2z"/><path fill="#eedd0b" opacity=".6" d="M476.3 266H165.1l23.1-13h298.3z"/><path fill="#2f2e41" d="M410.5 218.6s.5 5 1.4 5.4 7.7 11.7 0 14-12.2 1.4-14 2.3-33.4 2.7-33.9-2.3 15.4-5.9 15.4-5.9 14.5-9.5 16.7-14.5 14.4 1 14.4 1z"/><path fill="#f2f2f2" d="M468.7 260.4 343.8 0 134.9 100.3l76.8 160.1z"/><path fill="#eedd0b" opacity=".4" d="m190.53 155.527 110.986-53.253 3.288 6.853-110.987 53.253z"/><path fill="#eedd0b" opacity=".4" d="m219.916 216.724 110.987-53.253 3.288 6.852-110.987 53.253z"/><path fill="#eedd0b" opacity=".4" d="m323.51 79.443 27.588-13.238 13.238 27.59-27.59 13.237z"/><path fill="#eedd0b" opacity=".4" d="m352.896 140.64 27.589-13.238 13.237 27.589-27.589 13.237z"/><path fill="#eedd0b" opacity=".6" d="m353 47.1-11.4 32.3-15.3-5.4-2.1 6 21.3 7.4 13.4-38.2z"/><path fill="#eedd0b" opacity=".6" d="M382.4 108.3 371 140.6l-15.3-5.4-2.1 6 21.2 7.4 13.5-38.2z"/></svg>