<svg xmlns="http://www.w3.org/2000/svg" viewBox="0 0 163 124" xml:space="preserve"><path fill="#fff" d="M-98.7-403.1h-31c-1.4 0-2.5-1.1-2.5-2.5s1.1-2.5 2.5-2.5h31c1.4 0 2.5 1.1 2.5 2.5s-1.1 2.5-2.5 2.5z"/><circle fill="#fff" cx="-82.7" cy="-405.6" r="2"/><g opacity=".4" fill="#eedd0b"><path d="m162.2 66-15.9-44.8-141 49.7 15.9 45c2.2 6.1 8.9 9.3 15 7.2l118.8-42c6.2-2.3 9.4-9 7.2-15.1z"/><path d="m4.125 70.593.943-.334.234.66-.943.334z"/><path d="m146.137 20.44 2.45-.869.235.66-2.451.869z"/></g><path fill="#eedd0b" d="M155.1 80.9 36.2 123c-6.1 2.2-12.8-1-15-7.2L.8 58.1c-2.2-6.1 1-12.8 7.2-15L126.8 1c6.1-2.2 12.8 1 15 7.2l20.4 57.7c2.2 6.2-1 12.9-7.1 15z" opacity=".4"/><path fill="#fff" d="M28.8 56.5c-7.9 5.2-18 1.3-21.5-4.4l.6-.3c6.6-4.2 16.6-1.9 20.9 4.7z"/><path fill="#fff" d="M29.5 87.1c-.6.2-1.2.1-1.7-.3-.6-.5-.8-1.2-.7-2 .1-.6.6-1.1 1.2-1.3l6.1-2.2c.6-.2 1.3-.1 1.7.3.6.5.8 1.2.7 2-.1.6-.6 1.1-1.2 1.3l-6.1 2.2z"/><path fill="#fff" d="M26.3 100.9c-1.1.2-2.2-.2-2.9-1.1-.8-1-1-2.4-.5-3.6.4-1.1 1.4-1.8 2.5-1.9l22.7-7.6c1.1-.2 2.2.2 2.9 1.1.8 1 1 2.4.5 3.6-.4 1-1.4 1.8-2.5 1.9l-22.7 7.6z"/><path fill="#fff" d="m5.642 70.473 140.571-49.695.233.66L5.875 71.133z"/><path fill="#fff" d="M147.8 56.4c-.4-.9-.7-2-1.1-3.2-1.3-4-2.9-9-6.2-10.7-1.6-.7-3.5-.8-5.2-.1l-16 5.7c-3.7 1.3-5.6 5.4-4.3 9.1.4.9.7 2 1.1 3.2 1.3 4 2.9 9 6.2 10.7 1.6.7 3.5.8 5.2.1l16-5.7c3.7-1.3 5.6-5.4 4.3-9.1zm-23.9 3c-2.2 0-4-1.8-4-4s1.8-4 4-4 4 1.8 4 4-1.8 4-4 4zm13 1c-1.7 0-3-1.3-3-3s1.3-3 3-3 3 1.3 3 3-1.4 3-3 3z"/><circle fill="#eedd0b" cx="123.9" cy="55.4" r="4" opacity=".4"/><circle fill="#eedd0b" cx="136.9" cy="57.4" r="3" opacity=".4"/></svg>