<svg xmlns="http://www.w3.org/2000/svg" viewBox="0 0 272 303" xml:space="preserve"><path fill="#eedd0b" d="M1 113.2c-.6 0-1-.4-1-1v-35c0-.6.4-1 1-1s1 .4 1 1v35c0 .5-.4 1-1 1z" opacity=".4"/><path fill="#eedd0b" d="M8 118.7c-.6 0-1-.4-1-1v-46c0-.6.4-1 1-1s1 .4 1 1v46c0 .5-.4 1-1 1z" opacity=".4"/><path fill="#eedd0b" d="M15 122.2c-.6 0-1-.4-1-1v-53c0-.6.4-1 1-1s1 .4 1 1v53c0 .5-.4 1-1 1z" opacity=".4"/><path fill="#eedd0b" d="M22 131.2c-.6 0-1-.4-1-1v-71c0-.6.4-1 1-1s1 .4 1 1v71c0 .5-.4 1-1 1z" opacity=".4"/><path fill="#eedd0b" d="M29 144.7c-.6 0-1-.4-1-1v-98c0-.6.4-1 1-1s1 .4 1 1v98c0 .5-.4 1-1 1z" opacity=".4"/><path fill="#eedd0b" d="M36 131.2c-.6 0-1-.4-1-1v-71c0-.6.4-1 1-1s1 .4 1 1v71c0 .5-.4 1-1 1z" opacity=".4"/><path fill="#eedd0b" d="M43 137.7c-.6 0-1-.4-1-1v-84c0-.6.4-1 1-1s1 .4 1 1v84c0 .5-.4 1-1 1z" opacity=".4"/><path fill="#eedd0b" d="M50 120.7c-.6 0-1-.4-1-1v-50c0-.6.4-1 1-1s1 .4 1 1v50c0 .5-.4 1-1 1z" opacity=".4"/><path fill="#eedd0b" d="M57 124.7c-.6 0-1-.4-1-1v-58c0-.6.4-1 1-1s1 .4 1 1v58c0 .5-.4 1-1 1z" opacity=".4"/><path fill="#eedd0b" d="M64 113.2c-.6 0-1-.4-1-1v-35c0-.6.4-1 1-1s1 .4 1 1v35c0 .5-.4 1-1 1z" opacity=".4"/><path fill="#eedd0b" d="M70 113.2c-.6 0-1-.4-1-1v-35c0-.6.4-1 1-1s1 .4 1 1v35c0 .5-.4 1-1 1z" opacity=".4"/><path fill="#eedd0b" d="M77 118.7c-.6 0-1-.4-1-1v-46c0-.6.4-1 1-1s1 .4 1 1v46c0 .5-.4 1-1 1z" opacity=".4"/><path fill="#eedd0b" d="M84 122.2c-.6 0-1-.4-1-1v-53c0-.6.4-1 1-1s1 .4 1 1v53c0 .5-.4 1-1 1z" opacity=".4"/><path fill="#eedd0b" d="M91 131.2c-.6 0-1-.4-1-1v-71c0-.6.4-1 1-1s1 .4 1 1v71c0 .5-.4 1-1 1z" opacity=".4"/><path fill="#eedd0b" d="M98 160.7c-.6 0-1-.4-1-1v-130c0-.6.4-1 1-1s1 .4 1 1v130c0 .5-.4 1-1 1z" opacity=".4"/><path fill="#eedd0b" d="M105 131.2c-.6 0-1-.4-1-1v-71c0-.6.4-1 1-1s1 .4 1 1v71c0 .5-.4 1-1 1z" opacity=".4"/><path fill="#eedd0b" d="M112 137.7c-.6 0-1-.4-1-1v-84c0-.6.4-1 1-1s1 .4 1 1v84c0 .5-.4 1-1 1z" opacity=".4"/><path fill="#eedd0b" d="M119 120.7c-.6 0-1-.4-1-1v-50c0-.6.4-1 1-1s1 .4 1 1v50c0 .5-.4 1-1 1z" opacity=".4"/><path fill="#eedd0b" d="M126 124.7c-.6 0-1-.4-1-1v-58c0-.6.4-1 1-1s1 .4 1 1v58c0 .5-.4 1-1 1z" opacity=".4"/><path fill="#eedd0b" d="M133 113.2c-.6 0-1-.4-1-1v-35c0-.6.4-1 1-1s1 .4 1 1v35c0 .5-.4 1-1 1z" opacity=".4"/><path fill="#eedd0b" d="M139 113.2c-.6 0-1-.4-1-1v-35c0-.6.4-1 1-1s1 .4 1 1v35c0 .5-.4 1-1 1z" opacity=".4"/><path fill="#eedd0b" d="M146 118.7c-.6 0-1-.4-1-1v-46c0-.6.4-1 1-1s1 .4 1 1v46c0 .5-.4 1-1 1z" opacity=".4"/><path fill="#eedd0b" d="M153 122.2c-.6 0-1-.4-1-1v-53c0-.6.4-1 1-1s1 .4 1 1v53c0 .5-.4 1-1 1z" opacity=".4"/><path fill="#eedd0b" d="M160 131.2c-.6 0-1-.4-1-1v-71c0-.6.4-1 1-1s1 .4 1 1v71c0 .5-.4 1-1 1z" opacity=".4"/><path fill="#eedd0b" d="M167 144.7c-.6 0-1-.4-1-1v-98c0-.6.4-1 1-1s1 .4 1 1v98c0 .5-.4 1-1 1z" opacity=".4"/><path fill="#eedd0b" d="M172 188.9c-.6 0-1-.4-1-1V1.4c0-.6.4-1 1-1s1 .4 1 1v186.5c0 .6-.4 1-1 1z" opacity=".8"/><path fill="#eedd0b" d="M174 131.2c-.6 0-1-.4-1-1v-71c0-.6.4-1 1-1s1 .4 1 1v71c0 .5-.4 1-1 1z" opacity=".4"/><path fill="#eedd0b" d="M181 137.7c-.6 0-1-.4-1-1v-84c0-.6.4-1 1-1s1 .4 1 1v84c0 .5-.4 1-1 1z" opacity=".4"/><path fill="#eedd0b" d="M188 120.7c-.6 0-1-.4-1-1v-50c0-.6.4-1 1-1s1 .4 1 1v50c0 .5-.4 1-1 1z" opacity=".4"/><path fill="#eedd0b" d="M195 124.7c-.6 0-1-.4-1-1v-58c0-.6.4-1 1-1s1 .4 1 1v58c0 .5-.4 1-1 1z" opacity=".4"/><path fill="#eedd0b" d="M202 113.2c-.6 0-1-.4-1-1v-35c0-.6.4-1 1-1s1 .4 1 1v35c0 .5-.4 1-1 1z" opacity=".4"/><path fill="#eedd0b" d="M208 113.2c-.6 0-1-.4-1-1v-35c0-.6.4-1 1-1s1 .4 1 1v35c0 .5-.4 1-1 1z" opacity=".4"/><path fill="#eedd0b" d="M215 118.7c-.6 0-1-.4-1-1v-46c0-.6.4-1 1-1s1 .4 1 1v46c0 .5-.4 1-1 1z" opacity=".4"/><path fill="#eedd0b" d="M222 122.2c-.6 0-1-.4-1-1v-53c0-.6.4-1 1-1s1 .4 1 1v53c0 .5-.4 1-1 1z" opacity=".4"/><path fill="#eedd0b" d="M229 131.2c-.6 0-1-.4-1-1v-71c0-.6.4-1 1-1s1 .4 1 1v71c0 .5-.4 1-1 1z" opacity=".4"/><path fill="#eedd0b" d="M236 160.7c-.6 0-1-.4-1-1v-130c0-.6.4-1 1-1s1 .4 1 1v130c0 .5-.4 1-1 1z" opacity=".4"/><path fill="#eedd0b" d="M243 131.2c-.6 0-1-.4-1-1v-71c0-.6.4-1 1-1s1 .4 1 1v71c0 .5-.4 1-1 1z" opacity=".4"/><path fill="#eedd0b" d="M250 137.7c-.6 0-1-.4-1-1v-84c0-.6.4-1 1-1s1 .4 1 1v84c0 .5-.4 1-1 1z" opacity=".4"/><path fill="#eedd0b" d="M257 120.7c-.6 0-1-.4-1-1v-50c0-.6.4-1 1-1s1 .4 1 1v50c0 .5-.4 1-1 1z" opacity=".4"/><path fill="#eedd0b" d="M264 124.7c-.6 0-1-.4-1-1v-58c0-.6.4-1 1-1s1 .4 1 1v58c0 .5-.4 1-1 1z" opacity=".4"/><path fill="#eedd0b" d="M271 113.2c-.6 0-1-.4-1-1v-35c0-.6.4-1 1-1s1 .4 1 1v35c0 .5-.4 1-1 1z" opacity=".4"/><path fill="#eedd0b" d="M29 264.7v35.7l28-17.8-28-17.9z" opacity=".8"/><circle transform="rotate(-44.976 133.985 282.55)" fill="#eedd0b" cx="134" cy="282.6" opacity=".4" r="20"/><path fill="#eedd0b" d="M221.3 298.6h-6.9c-1.9 0-3.4-1.5-3.4-3.4V270c0-1.9 1.5-3.4 3.4-3.4h6.9c1.9 0 3.4 1.5 3.4 3.4v25.2c0 1.8-1.5 3.4-3.4 3.4zm21.7-3.5V270c0-1.9-1.5-3.4-3.4-3.4h-6.9c-1.9 0-3.4 1.5-3.4 3.4v25.2c0 1.9 1.5 3.4 3.4 3.4h6.9c1.9 0 3.4-1.6 3.4-3.5z" opacity=".4"/><path fill="#eedd0b" d="M223.6 215.7H48.4c-.7 0-1.2-.5-1.2-1.2s.5-1.2 1.2-1.2h175.3c.7 0 1.2.5 1.2 1.2-.1.7-.6 1.2-1.3 1.2z" opacity=".4"/></svg>