<svg version="1.1" id="Calque_1" xmlns="http://www.w3.org/2000/svg" x="0" y="0" viewBox="0 0 258 147" xml:space="preserve"><path fill="none" d="m.6 14.2 1.6 77.7 50.3 26.6 91.7-16.3 2.2-80.9L88.3.9z"/><path fill="#eedd0b" d="m52.4 119.4-51-26.9-1.7-78.9L88.4.1l.2.1 58.7 20.7-2.3 82-92.6 16.5zM3 91.4l49.7 26.2 90.7-16.2 2.2-79.6L88.2 1.7 1.4 14.9 3 91.4z" opacity=".4"/><path fill="#eedd0b" opacity=".4" d="m51.4 35.3-.2-.1L.3 14.9l.6-1.5 50.7 20.2 94.7-13 .2 1.5z"/><path transform="matrix(.9999 -.01216 .01216 .9999 -.926 .638)" fill="#eedd0b" opacity=".4" d="M51.2 34.4h1.6v84.1h-1.6z"/><path fill="#eedd0b" opacity=".4" d="m40.5 29.4-13.9-5.6L115 9.7l13.9 5.6z"/><path transform="rotate(-66.704 11.208 42.061)" fill="#eedd0b" opacity=".4" d="M10.4 30.5H12v23.2h-1.6z"/><path transform="rotate(-66.704 20.852 68.58)" fill="#eedd0b" opacity=".8" d="M20 57h1.6v23.2H20z"/><path fill="#eedd0b" opacity=".4" d="m88 24.8 1.9 90.3 58.4 30.9 106.4-19 2.6-93.8-67.4-23.8z"/><path fill="#eedd0b" d="M148.2 146.9 89 115.7 87 24 190 8.5l.2.1 68.1 24-2.7 95.2-107.4 19.1zm-57.4-32.4 57.7 30.5 105.3-18.8 2.6-92.4-66.6-23.4L88.9 25.6l1.9 88.9z" opacity=".4"/><path fill="#eedd0b" opacity=".4" d="m147 49.3-.2-.1-59.2-23.5.7-1.7 58.9 23.4 110-15.2.2 1.9z"/><path transform="matrix(.9999 -.01216 .01216 .9999 -1.17 1.804)" fill="#eedd0b" opacity=".4" d="M146.8 48.4h1.9V146h-1.9z"/><path fill="#eedd0b" opacity=".4" d="M135.3 42.6 118.2 36l102.6-16.3 17.1 6.5z"/><path transform="rotate(-66.704 100.349 57.201)" fill="#eedd0b" opacity=".4" d="M99.4 43.7h1.9v26.9h-1.9z"/><path transform="rotate(-66.704 111.544 87.986)" fill="#fff" d="M110.6 74.5h1.9v26.9h-1.9z"/></svg>