<svg id="svg2" xmlns="http://www.w3.org/2000/svg" viewBox="100 100 200 200"><defs><linearGradient id="a" x1="140.62" y1="-8188.16" x2="230.38" y2="-8080.15" gradientTransform="matrix(1 0 0 -1 0 -7972.5)" gradientUnits="userSpaceOnUse"><stop offset="0" stop-color="#43565e"/><stop offset="1" stop-color="#172429"/></linearGradient></defs><path d="m285.32 188.74-.9-.18a98.39 98.39 0 0 0 .4-11.1c-.1-3.88-1.3-20-4.52-29.59-1.62-4.74-3.34-9.3-6.54-13.39-.37-.43-.72-.9-1.12-1.36a.62.62 0 0 0-1.08.53c4.14 17.77 4 37.6 1.05 55.31-1.91 11.52-4.6 25-10.63 34.83-6.68 10.91-19 13.47-30.06 15.15-10.53 1.61-31.89 1.82-31.89 1.82s-21.41-.25-31.89-1.82c-11.06-1.7-23.38-4.24-30.06-15.15-6-9.88-8.72-23.34-10.63-34.83-2.91-17.68-3.09-37.49 1-55.31a.62.62 0 0 0-1.07-.53c-.4.46-.75.93-1.12 1.36-3.19 4.09-4.91 8.62-6.54 13.39-3.24 9.51-4.42 25.71-4.52 29.59a96 96 0 0 0 .4 11.1l-.9.18a2.93 2.93 0 0 0-2.55 3.19l5.35 34a3.24 3.24 0 0 0 3.45 2.51l3.88-.1c.83 1.86 1.73 3.74 2.73 5.53a26.53 26.53 0 0 0 10.05 10 42.61 42.61 0 0 0 13 4.71 151.4 151.4 0 0 0 16 2.51c1.4.18 3.8.46 5.28.64a.33.33 0 0 1 .07.65c-4.2 1.23-13.14 5.35-17 9.05a59.14 59.14 0 0 0-9.59 10.57 34.7 34.7 0 0 0-5.5 11 6.9 6.9 0 0 0 4.57 8.12 178.41 178.41 0 0 0 111.11 0 6.92 6.92 0 0 0 4.57-8.12v-.07a34.7 34.7 0 0 0-5.5-11 58.77 58.77 0 0 0-9.62-10.51c-3.92-3.7-12.86-7.82-17-9.05a.34.34 0 0 1 .07-.65c1.48-.18 3.88-.46 5.28-.64 5.38-.65 10.73-1.33 16-2.51a43.07 43.07 0 0 0 13-4.71 26.39 26.39 0 0 0 10.05-10c1-1.79 1.91-3.67 2.73-5.53l3.88.1a3.31 3.31 0 0 0 3.46-2.51l5.34-34a2.86 2.86 0 0 0-2.48-3.19Z" fill="#b7c1c6"/><ellipse cx="200.06" cy="237.01" rx="77.46" ry="13.93" style="isolation:isolate" fill="#fff" opacity=".5"/><path d="M125.44 152.29a154.61 154.61 0 0 0 2.56 40.29c2.45 12.24 4.39 25.18 12.79 35.26 7.18 8.62 20 11 30.17 12.24 9.61 1.15 29.08 1.4 29.08 1.4s19.46-.25 29.08-1.4c10.2-1.18 23-3.62 30.17-12.24 8.4-10.1 10.34-23 12.78-35.26a152.9 152.9 0 0 0 2.56-40.29 144.69 144.69 0 0 0-1.91-15.67 14.53 14.53 0 0 0-4.6-8.36 127.87 127.87 0 0 0-12-9.56 87.07 87.07 0 0 0-15.15-9 105.18 105.18 0 0 0-21.65-7.32A107.77 107.77 0 0 0 200 100a103.08 103.08 0 0 0-41.05 9.66 87.87 87.87 0 0 0-15.15 9.06 131.41 131.41 0 0 0-12 9.55 14.59 14.59 0 0 0-4.57 8.37c-.75 5.2-1.43 10.48-1.79 15.65Z" fill="#172429"/><path d="M225 144a152.42 152.42 0 0 1 46.36 7.17c-.36-4.35-.93-8.76-1.65-13.1a14.11 14.11 0 0 0-4.38-8 123.64 123.64 0 0 0-11.46-9.15 84.17 84.17 0 0 0-14.51-8.66 103 103 0 0 0-20.73-7 104.85 104.85 0 0 0-18.58-2.26 105.07 105.07 0 0 0-18.57 2.22 103.52 103.52 0 0 0-20.72 7 87.56 87.56 0 0 0-14.52 8.66 121 121 0 0 0-11.45 9.15 14.27 14.27 0 0 0-4.39 8 143.1 143.1 0 0 0-1.79 15A151.41 151.41 0 0 0 129 178a151.64 151.64 0 0 1 96-34Z" fill="url(#a)"/><ellipse fill="#22d8d8" cx="159.24" cy="207.35" rx="8.47" ry="10.74" transform="rotate(-4 159.198 207.261)"/><path fill="#22d8d8" d="M240.07 218.07c4.67.29 8.8-4.27 9.27-10.19s-3-11-7.61-11.28-8.8 4.27-9.27 10.2 2.98 10.96 7.61 11.27Z"/></svg>