<svg xmlns="http://www.w3.org/2000/svg" viewBox="0 0 24.33 23.81"><path d="M22.07 0H2.26A2.27 2.27 0 0 0 0 2.26v5.33h5.49v-.87c0-.68.55-1.22 1.22-1.22h10.9c.67 0 1.22.55 1.22 1.22v.87h5.49V2.26A2.27 2.27 0 0 0 22.06 0Z" fill="#da1a32"/><path d="M18.83 17.09c0 .67-.55 1.22-1.22 1.22H6.72c-.68 0-1.22-.55-1.22-1.22v-.87H0v5.33a2.27 2.27 0 0 0 2.26 2.26h19.81a2.27 2.27 0 0 0 2.26-2.26v-5.33h-5.49v.87Z" fill="#da1a32"/><path fill="#da1a32" d="M0 9.16h5.49v5.49H0z"/><path fill="#da1a32" d="M18.83 9.16h5.49v5.49h-5.49z"/></svg>