<svg version="1.1" id="Calque_1" xmlns="http://www.w3.org/2000/svg" x="0" y="0" viewBox="0 0 343 343" xml:space="preserve"><path fill="#425cc7" d="m179.2 216.6-64 64c-4.8 4.8-12.5 4.8-17.3 0L62.3 245c-4.8-4.8-4.8-12.5 0-17.3l64-64c4.8-4.8 12.5-4.8 17.3 0l35.6 35.6c4.8 4.8 4.8 12.6 0 17.3z"/><path fill="#425cc7" d="M271.6 150.8 224.4 198c-5.6 5.6-14.7 5.6-20.3 0L145 138.8c-5.6-5.6-5.6-14.7 0-20.3l47.2-47.2c5.6-5.6 14.7-5.6 20.3 0l59.2 59.2c5.5 5.6 5.5 14.7-.1 20.3z"/><path d="m233.5 3.8-22.9 22.9c-4.5 4.5-4.5 11.8 0 16.3l89.5 89.5c4.5 4.5 11.8 4.5 16.3 0l22.9-22.9c4.5-4.5 4.5-11.8 0-16.3L249.8 3.8c-4.5-4.5-11.8-4.5-16.3 0zM73 296.5c4.1-4.1 4.1-10.7 0-14.8L61.3 270c-4.1-4.1-10.7-4.1-14.8 0l-24 24-6.6-6.6c-3.6-3.6-9.6-3.6-13.2 0s-3.6 9.6 0 13.2l39.7 39.7c3.6 3.6 9.6 3.6 13.2 0s3.6-9.6 0-13.2l-6.6-6.6 24-24z" fill="#f5a800"/></svg>
