<svg xmlns="http://www.w3.org/2000/svg" viewBox="0 0 38.14 18.12"><path fill="#000" d="M8.16 18.12a7.76 7.76 0 0 1-6.05-2.35A9.79 9.79 0 0 1 0 9.05a9.58 9.58 0 0 1 2.14-6.67A7.65 7.65 0 0 1 8.16 0a7.65 7.65 0 0 1 6 2.38 9.58 9.58 0 0 1 2.14 6.67 9.79 9.79 0 0 1-2.11 6.72 7.71 7.71 0 0 1-6.03 2.35Zm0-3.19a3.69 3.69 0 0 0 3.24-1.51 7.48 7.48 0 0 0 1.08-4.37A7.37 7.37 0 0 0 11.4 4.7a3.69 3.69 0 0 0-3.24-1.51A3.75 3.75 0 0 0 4.9 4.7a7.45 7.45 0 0 0-1.06 4.35 7.56 7.56 0 0 0 1.06 4.37 3.75 3.75 0 0 0 3.26 1.51ZM32 14v3.12a11.25 11.25 0 0 1-2.19.72 10.85 10.85 0 0 1-2.71.31q-4.2 0-6.36-2.38t-2.2-6.91a9.81 9.81 0 0 1 1.06-4.73 7.18 7.18 0 0 1 3-3A9.38 9.38 0 0 1 27.23 0a10.19 10.19 0 0 1 2.35.26 9 9 0 0 1 1.9.68V4.1a15.34 15.34 0 0 0-2.21-.67 8.49 8.49 0 0 0-1.78-.19A4.85 4.85 0 0 0 23.7 4.7a6 6 0 0 0-1.32 4.16 6.85 6.85 0 0 0 1.3 4.48 4.66 4.66 0 0 0 3.81 1.56 10.24 10.24 0 0 0 2-.21A22.73 22.73 0 0 0 32 14Zm2.44 3.81V.34h3.74v17.44Z"/></svg>