<svg xmlns="http://www.w3.org/2000/svg" viewBox="0 0 27.2 29.2" xml:space="preserve"><linearGradient id="a" gradientUnits="userSpaceOnUse" x1="19.508" y1="11.503" x2="2.241" y2="28.002" gradientTransform="matrix(1 0 0 -1 0 31.994)"><stop offset="0" stop-color="#00dba6"/><stop offset="1" stop-color="#24b2ff"/></linearGradient><path d="M9.3 7.1c1.3-.8 2.1-2.2 1.9-3.8.8-.2 1.6-.3 2.4-.3 6.5 0 11.8 5.3 11.8 11.8 0 2.9-1.1 5.6-2.8 7.7-1.6-1.4-4-1.2-5.4.3-.8 1-1.1 2.3-.8 3.5-.9.2-1.9.3-2.8.3-6.5 0-11.8-5.3-11.8-11.8 0-3.2 1.2-6 3.2-8.1 1.3 1 3 1.2 4.3.4zM17.4 28c-1.2.3-2.4.5-3.7.5C6.1 28.5 0 22.4 0 14.9c0-3.6 1.4-7 3.9-9.6-.8-1.9.1-4.2 2-5 1.6-.7 3.6-.2 4.6 1.3 1-.2 2.1-.4 3.1-.4 7.5 0 13.6 6.1 13.6 13.6 0 3.5-1.4 6.8-3.6 9.2.7 2-.3 4.1-2.3 4.9-1.3.5-2.9.2-3.9-.9z" fill-rule="evenodd" clip-rule="evenodd" fill="url(#a)"/></svg>