<svg xmlns="http://www.w3.org/2000/svg" viewBox="0 0 64 32">
  <g style="isolation:isolate">
    <path d="M46.21,14.29,32.07,5.82a2,2,0,0,0-2.73.73,1.9,1.9,0,0,0-.27,1V24.47a2,2,0,0,0,2,2,2.12,2.12,0,0,0,1-.27l14.14-8.47A2,2,0,0,0,46.88,15,2.14,2.14,0,0,0,46.21,14.29Z" style="fill:#efdf0b"/>
    <g x="0">
      <path d="M34,14.29,19.83,5.82a2,2,0,0,0-2.73.73,1.9,1.9,0,0,0-.27,1V24.47a2,2,0,0,0,2,2,2.12,2.12,0,0,0,1-.27L34,17.71A2,2,0,0,0,34.64,15,2.14,2.14,0,0,0,34,14.29Z" x="0" id="pinkArrow" style="fill:#fc1d90;mix-blend-mode:multiply">
        <animate
          attributeType="CSS"
          attributeName="opacity" 
          dur="8s"
          repeatCount="indefinite"
          values="0; 1; 1; 0"
          keyTimes="0; 0.05; 0.95; 1"
        />
      </path>
      <animateTransform
        attributeName="transform"
        attributeType="XML"
        type="translate"
        values="-32; 0; 0; 32"
        keyTimes="0; 0.05; 0.95; 1"
        dur="8s"
        repeatCount="indefinite"
      />
    </g>
  </g>
</svg>