<svg xmlns="http://www.w3.org/2000/svg" viewBox="0 0 70 52"><path d="M43.14 50.8c.1.53-.17.8-.8.8H31a1.6 1.6 0 0 1-1.46-.88L.74 1.49A1.61 1.61 0 0 1 .58 1C.49.49.76.24 1.39.24h11.27a1.52 1.52 0 0 1 1.46.88L43 50.36a1 1 0 0 1 .14.44Z" fill="#fc1d90"/><path fill="currentcolor" d="m69.3 50.44-9.18-19.39a.36.36 0 0 1 .22-.52 13.64 13.64 0 0 0 6.46-5.32 15.27 15.27 0 0 0 2.35-8.49 17.34 17.34 0 0 0-2.06-8.55 14.52 14.52 0 0 0-5.78-5.77 17.54 17.54 0 0 0-8.63-2H30.79a1 1 0 0 0-.79.24 1.13 1.13 0 0 0-.29.81v20.43L40 39.36h3.33v-7a.32.32 0 0 1 .36-.37h3a.47.47 0 0 1 .43.29l8 18.66a1.17 1.17 0 0 0 1.22.81h12.09a1.19 1.19 0 0 0 .72-.22.71.71 0 0 0 .29-.59 3.49 3.49 0 0 0-.14-.5ZM54.2 20.21a5.45 5.45 0 0 1-3.76 1.29h-6.79a.32.32 0 0 1-.36-.37v-8.59a.32.32 0 0 1 .36-.37h6.79a5.45 5.45 0 0 1 3.76 1.29 4.33 4.33 0 0 1 1.44 3.41 4.26 4.26 0 0 1-1.44 3.34Z"/><path d="M35.28 41.87a.92.92 0 0 0-.8.49l-4.25 7.92a1.36 1.36 0 0 0-.15.48c-.09.6.18.89.81.89h11.47a1.61 1.61 0 0 0 1.48-1l4-7.44a.93.93 0 0 0-.8-1.37Z" fill="#d70068" opacity=".8"/></svg>