<svg xmlns="http://www.w3.org/2000/svg" viewBox="0 0 64 64" xml:space="preserve"><path d="M57.24 46.373c-7.76 10.334-24.333 6.84-34.973 7.347 0 0-1.88.107-3.774.413 0 0 .72-.306 1.627-.626 7.467-2.587 11-3.107 15.533-5.427 8.52-4.36 17-13.88 18.734-23.76-3.24 9.507-13.107 17.68-22.094 21-6.146 2.267-17.266 4.48-17.266 4.48 0 .013-.44-.227-.454-.24-7.56-3.68-7.786-20.053 5.96-25.347 6.027-2.32 11.787-1.04 18.294-2.6C45.773 19.96 53.813 14.76 57.08 7.947c3.653 10.893 8.067 27.906.16 38.426zm.133-41.76a29.12 29.12 0 0 1-3.346 5.947c-5.72-5.867-13.707-9.533-22.534-9.533C14.12 1.013 0 15.147 0 32.507c0 9.106 3.88 17.306 10.08 23.066l.693.614a2.702 2.702 0 0 1-.4-3.787 2.702 2.702 0 0 1 3.787-.4 2.69 2.69 0 0 1 .4 3.787 2.69 2.69 0 0 1-3.787.4l.467.413c5.48 4.613 12.547 7.4 20.253 7.4 16.6 0 30.227-12.92 31.4-29.213.854-7.987-1.506-18.12-5.52-30.174" fill="#5fb832"/></svg>