<svg xmlns="http://www.w3.org/2000/svg" width="84.819" height="64.816" viewBox="0 0 84.819 64.816">
  <g id="Groupe_20155" data-name="Groupe 20155" transform="translate(0 0)">
    <path id="Tracé_16083" data-name="Tracé 16083" d="M0,0V61.6H75.528v3.213l9.291-5.364-9.291-5.365V57.3H34.206l3.778-4.773-2.352-1.861L33.07,53.9l-2.595-3.208-2.332,1.89,3.82,4.717H4.3V23.139l.458.565,2.332-1.886L4.3,18.371V0Z" fill="#46463f"/>
    <rect id="Rectangle_3803" data-name="Rectangle 3803" width="3" height="11.432" transform="translate(17.952 39.993) rotate(-38.989)" fill="#46463f"/>
    <rect id="Rectangle_3804" data-name="Rectangle 3804" width="3.001" height="11.432" transform="matrix(0.777, -0.629, 0.629, 0.777, 7.759, 27.407)" fill="#46463f"/>
    <rect id="Rectangle_3805" data-name="Rectangle 3805" width="11.032" height="2.999" transform="translate(38.485 47.062) rotate(-51.648)" fill="#46463f"/>
    <path id="Tracé_16084" data-name="Tracé 16084" d="M53.81,32.533h5.274v-3H52.359l-4.174,5.273,2.352,1.862Z" fill="#46463f"/>
    <rect id="Rectangle_3806" data-name="Rectangle 3806" width="9.939" height="3" transform="translate(63.226 29.533)" fill="#46463f"/>
    <rect id="Rectangle_3807" data-name="Rectangle 3807" width="6" height="3" transform="translate(77.306 29.533)" fill="#46463f"/>
  </g>
</svg>
