<svg data-name="Groupe 20154" xmlns="http://www.w3.org/2000/svg" viewBox="0 0 73.126 71.321"><defs><clipPath id="a"><path data-name="Rectangle 3802" fill="none" d="M0 0h73.126v71.321H0z"/></clipPath></defs><g data-name="Groupe 20150" clip-path="url(#a)" fill="#46463f"><path data-name="Tracé 16077" d="M63.744 18.462a7.387 7.387 0 0 0-10.126-7.8l1.4 3.4a3.712 3.712 0 0 1 5.082 3.921Z"/><path data-name="Tracé 16078" d="M72.192 7.763A12.493 12.493 0 0 0 55.891.94l1.4 3.4a8.82 8.82 0 0 1 12.083 9.31l3.646.478a12.519 12.519 0 0 0-.828-6.365"/><path data-name="Tracé 16079" d="m17.976 19.115.52-3.641a7.387 7.387 0 0 0-7.908 10.041l3.418-1.357a3.71 3.71 0 0 1 3.97-5.043"/><path data-name="Tracé 16080" d="m13.744 9.793.52-3.641A12.495 12.495 0 0 0 .89 23.137l3.417-1.358a8.819 8.819 0 0 1 9.437-11.986"/><path data-name="Tracé 16081" d="M41.96 67.373a3.715 3.715 0 0 1-1.524-1.146L37.545 68.5A7.387 7.387 0 0 0 50.2 66.706l-3.41-1.381a3.715 3.715 0 0 1-4.83 2.048"/><path data-name="Tracé 16082" d="M55.995 33.769a17.4 17.4 0 0 0-12.24-16.218 7.987 7.987 0 1 0-15.631 2.733 17.4 17.4 0 0 0-6.332 18.488 26.8 26.8 0 0 1-2.764 21.247l-2.449 3.957 52.478-7.752-3.957-3.493a26.333 26.333 0 0 1-9.106-18.962M37.977 16.776a17.5 17.5 0 0 0-6.588 1.572c-.008-.109-.033-.212-.033-.323a4.419 4.419 0 0 1 8.678-1.189 16.947 16.947 0 0 0-2.057-.06"/></g></svg>