<svg xmlns="http://www.w3.org/2000/svg" viewBox="0 0 78.012 72.027"><defs><clipPath id="a"><path data-name="Rectangle 3801" fill="none" d="M0 0h78.012v72.027H0z"/></clipPath></defs><g data-name="Groupe 20153"><g data-name="Groupe 20148" clip-path="url(#a)" fill="#46463f"><path data-name="Tracé 16075" d="M25.668 49.461Z"/><path data-name="Tracé 16076" d="M67.679 23.965a11.939 11.939 0 0 0-11.785 5.5c-1.531-.637-4.8-2.01-7.761-3.257-5.2-2.186-7.487-3.149-8.612-3.51l-.081-.034.031-.08-6.9-2.725c.077-.37.155-.74.208-1.119A16.469 16.469 0 0 0 18.735.158 16.719 16.719 0 0 0 16.45 0v.364V0a16.47 16.47 0 0 0 .041 32.94 16.292 16.292 0 0 0 2.358-.187l2.989 17.388a11.279 11.279 0 0 0 2.292 21.778A11.276 11.276 0 0 0 36.856 62.3a11.266 11.266 0 0 0-.221-4.224L57.72 44.545l-.179-.28a11.913 11.913 0 0 0 6.841 3.435 12.185 12.185 0 0 0 1.664.115 11.98 11.98 0 0 0 1.633-23.847m-40.446 25.6a11.386 11.386 0 0 0-1.565-.109v.364-.363c-.268 0-.533.018-.8.037l-3.003-17.479a16.487 16.487 0 0 0 9.79-9.2l1.354.536c2.171.887 6.26 2.584 9.989 4.131 4.529 1.881 9.181 3.811 11.6 4.793a12.061 12.061 0 0 0-.432 1.9 11.931 11.931 0 0 0 1.651 7.905L35.462 55.144a11.25 11.25 0 0 0-8.229-5.575"/></g></g></svg>