<svg id="Assets" xmlns="http://www.w3.org/2000/svg" xmlns:xlink="http://www.w3.org/1999/xlink" viewBox="0 0 334 85.5"><defs><style>.cls-1{fill:none;}.cls-2{fill:#fc1d90;}.cls-3{fill:#292824;}.cls-4{opacity:0.8;}.cls-5{fill:#fe62b3;}.cls-6{clip-path:url(#clip-path);}.cls-7{fill:#f6f5f4;}.cls-8{opacity:0.63;}.cls-9{opacity:0.51;}.cls-10{clip-path:url(#clip-path-2);}.cls-11{clip-path:url(#clip-path-3);}</style><clipPath id="clip-path"><rect class="cls-1" x="2807.61" y="-1018.28" width="988" height="372" transform="translate(6603.22 -1664.56) rotate(-180)"/></clipPath><clipPath id="clip-path-2"><rect class="cls-1" x="3846.61" y="-1018.28" width="988" height="372" transform="translate(8681.22 -1664.56) rotate(-180)"/></clipPath><clipPath id="clip-path-3"><rect class="cls-1" x="7773.8" y="-4968.53" width="2018.81" height="1206.25" transform="translate(17566.42 -8730.81) rotate(-180)"/></clipPath></defs><path class="cls-2" d="M52,66.18c.12.64-.21,1-1,1H37.44a2,2,0,0,1-1.76-1.06L1.1,7a2.08,2.08,0,0,1-.19-.61c-.11-.59.22-.88,1-.88H15.42a1.82,1.82,0,0,1,1.75,1L51.85,65.65A1.56,1.56,0,0,1,52,66.18Z"/><path class="cls-3" d="M126.19,44.63a19.71,19.71,0,0,1-.09,2.16c0,.81-.42,1.21-1.27,1.21H99.35a.34.34,0,0,0-.34.31,3.35,3.35,0,0,0,.68,1.86,6.36,6.36,0,0,0,3,2.46,11.63,11.63,0,0,0,4.88,1,12.43,12.43,0,0,0,4.25-.69,9,9,0,0,0,3.31-2,1.36,1.36,0,0,1,.85-.34,1.06,1.06,0,0,1,.94.52l6.45,8.38a1.5,1.5,0,0,1,.34,1,1.07,1.07,0,0,1-.42.86,18.33,18.33,0,0,1-7.39,4.37,30.85,30.85,0,0,1-9.51,1.42,25.73,25.73,0,0,1-13.51-3.37,19.5,19.5,0,0,1-8.15-9.6,24.85,24.85,0,0,1-1.87-9.68,28.38,28.38,0,0,1,1.53-9.68A20.42,20.42,0,0,1,92,24.49a20.93,20.93,0,0,1,12.4-3.72,20.21,20.21,0,0,1,10.06,2.59,22,22,0,0,1,7.65,7.14,24.76,24.76,0,0,1,3.86,10.24A29.32,29.32,0,0,1,126.19,44.63ZM99.43,38l-.34.95a.31.31,0,0,0,.09.39.58.58,0,0,0,.34.13h9.68a.31.31,0,0,0,.34-.35,4.23,4.23,0,0,0-.26-1.12,4.23,4.23,0,0,0-1.74-2.55,5.6,5.6,0,0,0-3.27-.91A4.88,4.88,0,0,0,99.43,38Z"/><path class="cls-3" d="M130.65,65.74a1.34,1.34,0,0,1-.34-1v-58a1.34,1.34,0,0,1,.34-1,1.26,1.26,0,0,1,.94-.34H145a1.26,1.26,0,0,1,.94.34,1.33,1.33,0,0,1,.33,1v58a1.33,1.33,0,0,1-.33,1,1.26,1.26,0,0,1-.94.34h-13.4A1.26,1.26,0,0,1,130.65,65.74Z"/><path class="cls-3" d="M151.92,65.74a1.3,1.3,0,0,1-.34-.94V22.71a1.33,1.33,0,0,1,.34-.95,1.26,1.26,0,0,1,.94-.34h13.4a1.22,1.22,0,0,1,.93.34,1.29,1.29,0,0,1,.34.95V64.8a1.26,1.26,0,0,1-.34.94,1.22,1.22,0,0,1-.93.34h-13.4A1.26,1.26,0,0,1,151.92,65.74Z"/><path class="cls-3" d="M154.34,15.63a8,8,0,0,1-2.25-5.84,8,8,0,0,1,2.25-5.88,8.43,8.43,0,0,1,11.47,0,8,8,0,0,1,2.25,5.88,8,8,0,0,1-2.25,5.79,7.61,7.61,0,0,1-5.73,2.34A7.72,7.72,0,0,1,154.34,15.63Z"/><path class="cls-3" d="M203.89,22.69a18.75,18.75,0,0,1,7.64,5.41,11.62,11.62,0,0,1,2.8,7.48V64.79a1.31,1.31,0,0,1-.34.95,1.26,1.26,0,0,1-.94.34h-13.4a1.26,1.26,0,0,1-.94-.34,1.31,1.31,0,0,1-.34-.95v-3q0-.34-.12-.39t-.3.21a8.92,8.92,0,0,1-4,3.91,15.34,15.34,0,0,1-6.7,1.25q-7,0-10.95-3.22t-4-9.41q0-6.53,4.53-10.06t13.2-3.52H198a.42.42,0,0,0,.42-.42V38.58a3.64,3.64,0,0,0-1.31-2.92,5.28,5.28,0,0,0-3.52-1.11,6.84,6.84,0,0,0-2.72.51,3.4,3.4,0,0,0-1.69,1.38,2.54,2.54,0,0,1-.64.81,1,1,0,0,1-.81.13L174,35.66c-.79-.11-1.19-.46-1.19-1a12.36,12.36,0,0,1,3.06-7.05,18.59,18.59,0,0,1,7.25-5,26.73,26.73,0,0,1,10.14-1.85A27.72,27.72,0,0,1,203.89,22.69Zm-7.26,30.85a4.94,4.94,0,0,0,1.74-4V48.44a.44.44,0,0,0-.43-.44H193.7c-3.57,0-5.35,1.19-5.35,3.55a3.36,3.36,0,0,0,1,2.51,3.93,3.93,0,0,0,2.84.95A6.66,6.66,0,0,0,196.63,53.54Z"/><path class="cls-3" d="M263.85,43.4a34.2,34.2,0,0,1-1.27,9.69,19.68,19.68,0,0,1-6.41,10A15.83,15.83,0,0,1,246,66.78q-6.7,0-9.85-4.77c-.11-.17-.22-.23-.34-.17a.35.35,0,0,0-.16.35v2.59a1.34,1.34,0,0,1-.34,1,1.26,1.26,0,0,1-.94.34h-13.4a1.26,1.26,0,0,1-.94-.34,1.34,1.34,0,0,1-.34-1v-58a1.34,1.34,0,0,1,.34-1,1.26,1.26,0,0,1,.94-.34h13.4a1.26,1.26,0,0,1,.94.34,1.34,1.34,0,0,1,.34,1v17.4c0,.17.05.28.16.3a.33.33,0,0,0,.34-.13q3-4,9.17-4a16.49,16.49,0,0,1,10.35,3.33A19.53,19.53,0,0,1,262,32.31,30.59,30.59,0,0,1,263.85,43.4Zm-16.63.11A14,14,0,0,0,246,37a4.75,4.75,0,0,0-4.5-2.86A4.84,4.84,0,0,0,237,36.85a14,14,0,0,0-1.36,6.66,13.35,13.35,0,0,0,1.27,6.23,4.95,4.95,0,0,0,9,.08A13.84,13.84,0,0,0,247.22,43.51Z"/><path class="cls-3" d="M268.9,65.74a1.34,1.34,0,0,1-.34-1v-58a1.34,1.34,0,0,1,.34-1,1.26,1.26,0,0,1,.94-.34h13.4a1.22,1.22,0,0,1,.93.34,1.3,1.3,0,0,1,.34,1v58a1.3,1.3,0,0,1-.34,1,1.22,1.22,0,0,1-.93.34h-13.4A1.26,1.26,0,0,1,268.9,65.74Z"/><path class="cls-3" d="M291.06,82.76a2.24,2.24,0,0,1-.17-1V71.17c0-.85.31-1.28.93-1.28a31,31,0,0,0,7.88-.69,3.43,3.43,0,0,0,2.66-2.92l-.09-.51L289,22.88a1.18,1.18,0,0,1-.09-.52c0-.63.39-.94,1.18-.94h14.16a1.31,1.31,0,0,1,1.43,1.11l4.55,22.91c.06.23.14.34.26.34s.19-.11.25-.34l4.55-22.91a1.32,1.32,0,0,1,1.43-1.11H330.5c1,0,1.3.48,1,1.46L317.78,66.2a38.82,38.82,0,0,1-4.64,10,14.61,14.61,0,0,1-7.29,5.14Q301,83.11,292.07,83.1h-.59C291.32,83.1,291.17,83,291.06,82.76Z"/><path class="cls-3" d="M83.3,65.56,72.3,42.3a.42.42,0,0,1,.26-.62,16.4,16.4,0,0,0,7.75-6.39,18.3,18.3,0,0,0,2.82-10.17,20.78,20.78,0,0,0-2.47-10.27,17.54,17.54,0,0,0-6.93-6.92A21.13,21.13,0,0,0,63.37,5.47H36.94a1.23,1.23,0,0,0-.94.35,1.36,1.36,0,0,0-.33,1V31.3l12,21h3.91V44.19a.44.44,0,0,1,.44-.44h3.58a.54.54,0,0,1,.51.35l9.41,22.09a1.39,1.39,0,0,0,1.45,1H82.26a1.37,1.37,0,0,0,.87-.27.84.84,0,0,0,.35-.7A3.52,3.52,0,0,0,83.3,65.56Zm-18-36.18A6.85,6.85,0,0,1,60.59,31H52.05a.43.43,0,0,1-.43-.43V19.73a.44.44,0,0,1,.44-.44h8.53A6.85,6.85,0,0,1,65.3,20.9a5.5,5.5,0,0,1,1.81,4.29A5.38,5.38,0,0,1,65.3,29.38Z"/><g class="cls-4"><path class="cls-5" d="M42.55,55.45a1.08,1.08,0,0,0-.95.57L36.51,65.5a1.59,1.59,0,0,0-.18.58c-.11.71.21,1.07,1,1.07H51A1.94,1.94,0,0,0,52.79,66l4.76-8.89a1.11,1.11,0,0,0-1-1.64Z"/></g><g class="cls-6"><g id="Group_7878" data-name="Group 7878"><g id="Path_5194-2" data-name="Path 5194-2"><g id="Path_5194-3" data-name="Path 5194-3"><path class="cls-7" d="M3232.7-872.64l-749.16-450.14a34.69,34.69,0,0,0-47.61,11.87h0l-4518.3,7519.7a34.7,34.7,0,0,0,11.87,47.61l749.17,450.15a34.7,34.7,0,0,0,47.61-11.87L3244.57-825A34.69,34.69,0,0,0,3232.7-872.64Z"/></g></g></g><g id="Group_7878-2" data-name="Group 7878" class="cls-8"><g id="Path_5194-2-2" data-name="Path 5194-2" class="cls-9"><g id="Path_5194-3-2" data-name="Path 5194-3"><path class="cls-7" d="M3249.84-838.37l-749.17-450.14a34.69,34.69,0,0,0-47.61,11.87h0l-4518.29,7519.7a34.69,34.69,0,0,0,11.87,47.61l749.16,450.15a34.72,34.72,0,0,0,47.62-11.87L3261.71-790.76A34.7,34.7,0,0,0,3249.84-838.37Z"/></g></g></g></g><g class="cls-10"><g id="Group_7878-3" data-name="Group 7878"><g id="Path_5194-2-3" data-name="Path 5194-2"><g id="Path_5194-3-3" data-name="Path 5194-3"><path class="cls-7" d="M4292.7-872.64l-749.16-450.14a34.69,34.69,0,0,0-47.61,11.87h0l-4518.3,7519.7a34.7,34.7,0,0,0,11.87,47.61l749.17,450.15a34.7,34.7,0,0,0,47.61-11.87L4304.57-825A34.69,34.69,0,0,0,4292.7-872.64Z"/></g></g></g><g id="Group_7878-4" data-name="Group 7878" class="cls-8"><g id="Path_5194-2-4" data-name="Path 5194-2" class="cls-9"><g id="Path_5194-3-4" data-name="Path 5194-3"><path class="cls-7" d="M4309.84-838.37l-749.17-450.14a34.69,34.69,0,0,0-47.61,11.87h0l-4518.29,7519.7a34.69,34.69,0,0,0,11.87,47.61l749.16,450.15A34.72,34.72,0,0,0-196.58,6729L4321.71-790.76A34.7,34.7,0,0,0,4309.84-838.37Z"/></g></g></g></g><g class="cls-11"><g id="Group_7878-5" data-name="Group 7878"><g id="Path_5194-2-5" data-name="Path 5194-2"><g id="Path_5194-3-5" data-name="Path 5194-3"><path class="cls-7" d="M9373.84-4263.24,7398.11-5602.06c-43.31-29.36-99.53-13.55-125.56,35.3h0L-4643.21,16798.34c-26,48.85-12,112.25,31.3,141.61l1975.73,1338.82c43.32,29.35,99.53,13.54,125.56-35.31L9405.15-4121.64C9431.17-4170.49,9417.16-4233.89,9373.84-4263.24Z"/></g></g></g></g></svg>